<?xml version="1.0" encoding="UTF-8" standalone="no"?>
<!-- Created with Inkscape (http://www.inkscape.org/) -->

<svg
   xmlns:dc="http://purl.org/dc/elements/1.1/"
   xmlns:cc="http://creativecommons.org/ns#"
   xmlns:rdf="http://www.w3.org/1999/02/22-rdf-syntax-ns#"
   xmlns:svg="http://www.w3.org/2000/svg"
   xmlns="http://www.w3.org/2000/svg"
   xmlns:sodipodi="http://sodipodi.sourceforge.net/DTD/sodipodi-0.dtd"
   xmlns:inkscape="http://www.inkscape.org/namespaces/inkscape"
   width="493.87784"
   height="467.55344"
   id="svg2"
   version="1.1"
   inkscape:version="0.48.1 "
   sodipodi:docname="ninja desk.svg">
  <defs
     id="defs4" />
  <sodipodi:namedview
     id="base"
     pagecolor="#ffffff"
     bordercolor="#666666"
     borderopacity="1.0"
     inkscape:pageopacity="0.0"
     inkscape:pageshadow="2"
     inkscape:zoom="0.70710678"
     inkscape:cx="161.67711"
     inkscape:cy="229.52016"
     inkscape:document-units="px"
     inkscape:current-layer="layer1"
     showgrid="false"
     inkscape:window-width="1374"
     inkscape:window-height="878"
     inkscape:window-x="58"
     inkscape:window-y="-8"
     inkscape:window-maximized="1"
     fit-margin-top="10"
     fit-margin-left="10"
     fit-margin-bottom="10"
     fit-margin-right="10" />
  <metadata
     id="metadata7">
    <rdf:RDF>
      <cc:Work
         rdf:about="">
        <dc:format>image/svg+xml</dc:format>
        <dc:type
           rdf:resource="http://purl.org/dc/dcmitype/StillImage" />
        <dc:title></dc:title>
      </cc:Work>
    </rdf:RDF>
  </metadata>
  <g
     inkscape:label="Layer 1"
     inkscape:groupmode="layer"
     id="layer1"
     transform="translate(-94.184661,-291.2555)">
    <g
       id="g4647">
      <path
         transform="translate(94.184661,291.2555)"
         inkscape:connector-curvature="0"
         id="path4645"
         d="m 73,149.55344 71,18.5 17,54.5 32.5,-6.5 45,25.5 25,23.5 1,12 -78.5,21 -97.5,-65.5 z"
         style="fill:#e6e6e6;stroke:none;stroke-width:1px;stroke-linecap:butt;stroke-linejoin:miter;stroke-opacity:1" />
      <path
         inkscape:connector-curvature="0"
         id="path4033"
         d="m 422.5,693.86218 6.5,10.75 10.5,0.5 6.5,-10 -7.5,-7.75 -4.5,-2 z"
         style="fill:#1a1a1a;stroke:none" />
      <path
         inkscape:connector-curvature="0"
         d="m 423.23022,691.90995 c -0.10493,3.54571 1.91973,6.01069 4.52188,8.14359 2.88144,1.71109 6.34817,3.26069 9.76581,2.26343 0.53928,-0.15736 1.02602,-0.45788 1.53902,-0.68682 2.53781,-1.74077 3.65821,-4.406 3.31216,-7.40709 -0.6975,-2.95305 -2.88367,-4.67205 -5.2797,-6.26679 -1.81856,-0.91134 -3.66914,-1.59505 -5.47418,-2.54413 -0.11595,-0.006 -0.1068,-0.17044 0.009,-0.16397 l 0,0 c 0.77037,-0.27056 1.50788,-0.66511 2.31112,-0.81167 1.25091,-0.22825 3.31176,0.0788 4.54934,0.20949 0.72257,0.19847 1.47385,0.31247 2.16772,0.59541 3.65164,1.48904 5.83636,4.90921 6.62415,8.63466 0.0365,0.78165 0.16092,1.56414 0.10949,2.34495 -0.28358,4.30504 -3.05663,7.6602 -6.74552,9.62386 -0.8481,0.28251 -1.67125,0.65547 -2.54429,0.84752 -4.70901,1.03588 -9.35001,-0.70045 -13.15546,-3.39786 -3.97825,-3.59573 -6.00546,-6.45179 -5.11012,-12.00463 0.43844,-2.40377 3.83788,-1.78372 3.39944,0.62005 z"
         id="path3987"
         style="fill:#000000;fill-opacity:1;stroke:none" />
      <path
         inkscape:connector-curvature="0"
         id="path4116"
         d="m 397.46921,322.71593 c 17.50019,-0.089 34.00678,6.46853 50.40727,11.75707 3.2714,7.50631 10.60995,15.07545 19.50031,13.58016 12.82609,0.717 26.9283,-4.7952 38.65943,2.69685 15.56741,7.48748 34.16772,12.64061 50.96225,6.0794 5.60012,-1.51933 18.12251,-10.29482 20.00831,-1.61975 -3.46795,7.3719 -11.74355,11.86636 -19.74824,11.87178 -6.78108,-3.43686 -9.57314,-13.34532 -18.19576,-13.15494 -8.46992,1.56444 -17.88678,3.93791 -25.74839,-1.02789 -9.65023,-4.20331 -20.41428,-9.21762 -31.09305,-5.83572 -16.46835,2.85953 -34.77479,-1.20379 -46.54127,-13.611 -10.05909,-7.43349 -23.11001,-4.43069 -34.62146,-4.03432 -2.55946,-0.26277 -5.77775,-1.84889 -5.56991,-4.87746"
         style="fill:#000000;fill-opacity:1;stroke:#000000;stroke-width:2;stroke-opacity:1" />
      <path
         inkscape:connector-curvature="0"
         id="path4118"
         d="m 421.32018,323.65593 c 12.97992,0.62512 23.7523,8.66385 35.35488,13.53482 5.96567,6.65313 -6.50543,13.65219 -1.71273,20.46588 7.54535,7.25547 18.21724,9.45761 27.56074,13.45054 10.76479,2.47773 22.16557,-0.94498 31.03705,-7.18038 10.69301,-3.19299 19.94714,4.78643 28.91058,9.24265 2.16691,1.8854 12.28694,1.90583 10.53882,3.3349 -10.96577,0.43463 -22.44493,1.00134 -32.76207,-3.4201 -4.66804,-6.2539 -9.63179,-17.44939 -19.3792,-13.63972 -11.43074,3.13416 -23.24532,10.58423 -35.34629,5.91768 -7.11948,-2.45877 -15.86629,-7.64793 -15.27381,-16.3019 2.29827,-6.7187 0.87493,-16.85121 -7.20625,-18.6757 -8.81773,-1.03412 -17.89265,-2.92693 -25.53934,-7.6784 l 0.0154,-0.38418 c 2.5e-4,-0.002 -5.3e-4,-0.004 9.2e-4,-0.005"
         style="fill:#000000;fill-opacity:1;stroke:#000000;stroke-width:2;stroke-opacity:1" />
      <path
         inkscape:connector-curvature="0"
         id="path4043"
         d="m 298.04551,508.24351 -25.45585,11.31371 -6.0104,4.94975 4.24264,2.12132 14.84924,-1.76777 -11.66726,5.3033 -2.12132,9.8995 21.56675,-3.18198 13.43503,-10.6066 c 0,0 3.53554,-4.24264 2.82843,-5.65686 -0.70711,-1.41421 -11.66726,-12.37437 -11.66726,-12.37437 z"
         style="fill:#ff9955;fill-opacity:1;stroke:none" />
      <path
         inkscape:connector-curvature="0"
         id="path4045"
         d="m 334.10795,527.3354 -13.78858,10.96015 -11.31371,4.5962 -0.35355,2.12132 11.31371,2.12132 -9.8995,12.02081 10.96016,-1.41421 14.14213,-5.3033 c 0,0 -8.48528,8.48528 -4.94974,7.77817 3.53553,-0.7071 31.46625,-6.71751 31.46625,-6.71751 l 16.61701,-4.5962 -2.47488,-25.10229 z"
         style="fill:#ff9955;fill-opacity:1;stroke:none" />
      <path
         inkscape:connector-curvature="0"
         d="m 373.95479,525.65375 c -5.15395,0.10441 -10.26566,0.83455 -15.41663,1.11284 -5.57752,0.21217 -11.15924,0.30868 -16.73216,0.62721 -2.34647,0.15909 -4.7789,0.26436 -6.87212,1.43044 -1.33355,0.81936 -2.41195,1.96521 -3.46645,3.10489 -0.80873,0.9614 -1.5723,1.9604 -2.39441,2.91046 -0.46402,0.52935 -1.0375,0.92756 -1.57197,1.3763 -0.46329,0.3763 -0.99879,0.60915 -1.54339,0.83754 -1.18832,0.48186 -2.36279,0.99548 -3.54683,1.48793 -2.38303,1.06428 -4.83711,1.93764 -7.32349,2.72537 -2.07337,0.52565 -4.10997,1.18268 -6.13175,1.87783 -0.2397,-0.17072 -1.71874,0.86354 -1.27465,1.11398 1.39452,0.12115 2.92037,0.51132 4.3769,0.65783 3.59009,0.54279 7.16375,0.46073 10.71291,-0.25844 2.84097,-0.74665 5.48395,-2.05307 8.06342,-3.43032 1.26026,-0.70668 2.52065,-1.38923 3.86634,-1.91793 0.9792,-0.31908 1.9385,-0.4338 2.93968,-0.18343 1.85926,0.68478 2.12438,2.07277 1.34543,3.76934 -1.45473,1.85952 -3.78873,2.54283 -5.94365,3.25065 -3.52753,1.03025 -6.99458,2.22817 -10.41706,3.56395 -2.82409,1.24701 -5.65985,2.55243 -8.10675,4.45433 -1.31974,1.17373 -2.60867,2.41686 -3.43783,3.99284 -0.77301,1.4265 -0.008,1.37366 -0.59175,0.19831 2.21245,0.0226 4.4033,-0.48125 6.5499,-0.96485 3.50779,-0.82785 6.88418,-2.07911 10.26548,-3.30522 2.19352,-0.67182 4.18506,-1.76705 6.1604,-2.90051 0.94386,-0.61568 1.81809,-1.2184 2.92945,-1.42227 0.35712,0.82786 0.90376,1.5977 1.07136,2.48359 0.0489,0.25855 -0.31092,0.42538 -0.48343,0.62408 -0.96016,1.10591 -2.08578,2.07888 -3.07801,3.15925 -1.50658,1.50366 -2.95563,3.06467 -4.23621,4.76627 -0.17791,0.414 0.0884,-0.18834 0.075,-0.34316 -0.0896,-1.04208 -0.68627,-0.48734 1.22666,-0.83379 2.84132,-0.7811 5.60159,-1.84467 8.34341,-2.91882 3.85865,-1.63599 7.85921,-2.82858 11.93629,-3.77028 4.3367,-0.97618 8.75968,-1.438 13.17365,-1.89304 1.56623,0.13694 3.17146,-0.56984 4.72874,-0.46947 1.71355,0.42033 0.87312,0.33022 2.51607,0.31533 0.0957,-0.0341 0.14397,0.10121 0.0483,0.13534 l 0,0 c -0.72149,0.55606 -1.30845,1.29924 -2.10246,1.74566 -1.41533,0.79576 -3.30971,0.65545 -4.80065,1.21021 -4.30984,0.69991 -8.64623,1.18806 -12.96473,1.82971 -3.9781,0.7355 -7.85458,1.80394 -11.57641,3.41629 -2.91591,1.07737 -5.82251,2.21626 -8.85973,2.91272 -2.09069,0.36038 -5.19874,0.32887 -3.89275,-2.81325 1.22817,-1.92302 2.90047,-3.49213 4.4516,-5.14915 0.81931,-0.81272 1.59028,-1.6306 2.30903,-2.53398 0.46635,-0.58616 0.58207,-0.78659 0.59603,-0.77235 0.54319,0.55378 0.93873,1.2352 1.4081,1.8528 1.45061,-0.43934 -1.56412,0.54414 -1.64062,0.70122 -2.12482,1.02948 -4.24536,2.06521 -6.36193,3.11407 -3.4269,1.49335 -6.98681,2.68566 -10.60614,3.61916 -2.62608,0.6185 -5.32652,1.27422 -8.0186,0.64619 -1.96645,-1.15291 -1.34947,-2.01424 -0.75442,-3.74558 0.95328,-1.92939 2.24902,-3.63122 3.93131,-4.99198 2.61703,-2.15029 5.37362,-4.05139 8.53902,-5.32659 3.4358,-1.5473 6.97597,-2.81791 10.60291,-3.84498 1.46887,-0.47927 2.96033,-0.93188 4.25731,-1.79635 0.26745,0.28592 0.32499,0.73303 0.818,0.69307 -0.46625,0.0119 -0.93797,0.0696 -1.38005,0.22266 -1.24872,0.38745 -2.34049,1.17475 -3.5144,1.73318 -2.82633,1.46505 -5.68454,2.92159 -8.80216,3.66827 -3.89763,0.85838 -7.83077,1.07799 -11.7828,0.3674 -2.24864,-0.52414 -5.35464,-0.94706 -5.90666,-3.60973 0.25521,-1.54641 1.19264,-2.39391 2.67533,-2.86539 2.02042,-0.65587 4.05218,-1.28802 5.97162,-2.21343 2.38226,-0.94556 4.78009,-1.85368 7.14565,-2.84007 1.19012,-0.49488 2.39591,-0.94749 3.60016,-1.40629 0.39484,-0.15489 0.78774,-0.317 1.15215,-0.53597 0.46304,-0.23658 0.85698,-0.57543 1.18689,-0.97843 0.86372,-0.91522 1.64465,-1.89511 2.45049,-2.86026 1.19528,-1.35479 2.5599,-2.53736 4.11536,-3.46643 2.44339,-1.25797 5.05,-1.54225 7.78534,-1.47384 5.55784,-0.0314 11.11475,-0.22486 16.64381,-0.8282 5.14588,-0.45361 10.3132,-0.60604 15.44244,-1.20361 1.52655,-0.0856 1.64764,2.07325 0.12109,2.15888 z"
         id="path3905"
         style="fill:#2b1100;fill-opacity:1;stroke:none" />
      <path
         inkscape:connector-curvature="0"
         id="path4041"
         d="m 335.5,396.86218 c -0.5,2.5 7.5,17.5 7.5,17.5 l 34.5,29.5 39.5,-19 4.5,-51 c 0,0 -10,-15 -12,-15 -2,0 -71.5,39 -71.5,39 l 0,1.5"
         style="fill:#ff9955;stroke:none" />
      <path
         inkscape:connector-curvature="0"
         id="path4035"
         d="m 488.5,694.61218 -4.5,9.5 3.5,10.5 7.75,4.75 12.25,-0.75 1.75,-10.25 -4.75,-10 -6,-2.75 -6.25,1.25 z"
         style="fill:#1a1a1a;stroke:none" />
      <path
         inkscape:connector-curvature="0"
         id="path4037"
         d="m 497.5,674.11218 -2,4 1.5,6 7,1.75 9.75,-1.25 -0.75,-8.75 -5.5,-4.75 -8.25,1.5 z"
         style="fill:#1a1a1a;stroke:none" />
      <path
         inkscape:connector-curvature="0"
         id="path4039"
         d="m 432,658.86218 -0.5,7.5 4.75,4.75 12.75,0 -8.25,-7 z"
         style="fill:#1a1a1a;stroke:none" />
      <path
         inkscape:connector-curvature="0"
         id="path4031"
         d="m 455.73032,637.2905 0.70711,21.56676 -24.04163,-12.02082 -1.41422,8.48528 18.38478,14.49569 c 0,0 -28.63782,2.12132 -28.99138,3.88909 -0.35355,1.76777 -1.76777,19.09188 -1.76777,19.09188 0,0 10.60661,2.47488 11.31371,0.35356 0.70711,-2.12132 4.5962,-11.31371 4.5962,-11.31371 l 27.57716,-6.71752 36.76955,22.27387 -0.35355,-11.66726 -15.9099,-12.02082 18.03122,-0.70711 -1.76777,-13.43502 -29.69848,3.88908 -3.53553,-26.5165 z"
         style="fill:#808080;stroke:none" />
      <path
         sodipodi:nodetypes="cscccscccccc"
         inkscape:connector-curvature="0"
         id="path4029"
         d="m 394.56558,610.06689 c 0,0 6.87437,-14.77817 10.05635,-14.77817 3.18198,0 38.63783,-2.5 38.63783,-2.5 -25.70676,-6.71873 39.15229,-10.19442 60.97844,-20.04163 l 8.41422,-87.48455 c 0,0 -58.68987,-105.00535 -55.50789,-105.00535 3.18198,0 45.96195,4.59619 45.96195,4.59619 17.16247,-3.66279 28.65623,0.61062 41.36574,3.18198 21.70802,52.3817 8.00407,121.62607 3.18198,176.42314 -14.66658,55.96945 -53.8244,71.12018 -99.3485,75.66043 -20.46619,-0.75895 -43.90948,4.8616 -58.33631,-8.83884 z"
         style="fill:#d40000;stroke:none" />
      <path
         sodipodi:nodetypes="cccsc"
         inkscape:connector-curvature="0"
         id="path4017"
         d="m 249.56066,494.86218 11.93934,-0.5 26.5,14 c -12.58575,-0.68047 -18.74719,-0.21773 -31.81758,3.84428 -0.95038,0.29536 -2.87827,-6.40949 -6.62176,-17.34428 z"
         style="fill:#ff6600;fill-opacity:1;stroke:#2b0000;stroke-width:3;stroke-linecap:butt;stroke-linejoin:miter;stroke-opacity:1" />
      <path
         inkscape:connector-curvature="0"
         id="path3806"
         d="m 391.37726,401.66581 c 4.8481,-11.42613 22.92111,-0.60126 5.49374,2.70388 -2.06778,0.39216 -4.10719,-0.0822 -5.49374,-2.70388 z"
         style="fill:#ffffff;fill-opacity:1;stroke:none" />
      <path
         sodipodi:nodetypes="ccscccccccccccccccccccccccsscccc"
         inkscape:connector-curvature="0"
         id="path3999"
         d="m 344.75,309.36218 c -15.00989,7.00342 -23.74635,13.81266 -30.75,37 -1.08687,0 7.21633,42.11569 22.76777,56.35355 9.27091,8.48783 70.13934,-12.09615 68.64644,-23.29289 7.62713,8.76649 11.93692,14.11576 6.08579,34.93934 -31.87313,20.11549 -41.05053,-6.45777 -51.31802,14.85355 2.51913,5.42738 20.57383,21.17624 15.28249,29.20711 -22.75127,16.45059 -73.59856,34.94751 -76.52513,46.59619 4.2099,6.47659 4.68004,9.00873 12.76777,19.57538 22.4808,-5.46255 39.3541,-15.69387 64.11091,-19.29289 2.50328,4.19508 10.56855,9.11083 6.93934,14.18198 l -9.63604,3.75736 0.87868,22.12132 6.87868,4.29289 c 0.93599,6 -9.57462,10.58579 -20,18 L 325,592.36218 c 6.09871,21.62035 16.65314,44.91159 16,64 l -21.47487,14.35355 c -1.7631,5.62692 -0.66934,10.23353 10.66726,11.18198 13.27062,-2.59816 30.07971,-5.61343 36.05025,-12.53553 l 5.05025,14.52513 -20,13 c -10.5209,5.33333 -8.38175,12.08088 -11.35355,17.41421 32.63406,2.62489 66.5776,-12.43173 67.88909,-18.64645 C 403.37758,658.67695 393.94281,644.12648 387,618.36218 c 1.70087,-6.86038 8.47621,-10.43486 15.82843,-12.58579 0,0 25.29289,-4.06066 30.29289,-3.06066 5,1 76.50973,-20.48941 78.87868,-26.35355 16.84924,-41.70889 1.12132,-90.68629 1.12132,-90.68629 1.39293,-8.73556 -2.7973,-22.53374 -7.05456,-40.68629 C 489.25098,419.71305 472.85151,390.68968 455.17157,373.19061 419.40428,311.80836 380.34081,296.38782 344.75,309.36218 z"
         style="fill:#000000;stroke:none" />
      <path
         sodipodi:nodetypes="cccccccscc"
         inkscape:connector-curvature="0"
         id="path4027"
         d="m 399.16178,566.57982 31.1127,-13.43503 97.58073,-24.39518 12.37437,1.06066 -64.34672,25.10229 -53.38656,14.49569 4.5962,52.67946 c 0,0 -9.54595,7.77817 -10.60661,4.59619 -1.06066,-3.18198 -3.18198,-55.86144 -3.18198,-55.86144 z"
         style="fill:#808080;stroke:none;fill-opacity:1" />
      <path
         inkscape:connector-curvature="0"
         id="path3938"
         d="m 399.00902,397.89838 c -1.11858,-0.17819 -8.52994,5.44552 -8.34499,5.86314 0.81586,1.84225 9.97206,0.44356 11.52928,-0.97541 2.02525,-1.84543 2.38345,-5.85194 -3.18429,-4.88773 z"
         style="fill:#ffffff;fill-opacity:1;stroke:none" />
      <path
         sodipodi:nodetypes="ccccscccccsccccsccccscccccc"
         inkscape:connector-curvature="0"
         d="m 453.21847,376.28507 c -1.86526,-4.19458 -3.29317,-8.5625 -5.02044,-12.81409 -3.19024,-7.59928 -8.8079,-13.73034 -14.31145,-19.72001 -9.82114,-10.28552 -20.83155,-19.28283 -32.35171,-27.57781 -7.9317,-5.43423 -2.88277,-1.11071 -11.95592,-4.38434 -5.53721,-1.99784 -6.99101,-2.13692 -12.67552,-3.40693 -7.55033,-1.20682 -11.7299,-0.25051 -21.56735,0.62708 -13.94058,1.62806 -30.54874,17.06233 -35.44955,26.88079 -1.00509,2.11732 -0.79301,4.61996 -1.18952,6.92994 -1.46242,16.72281 1.20233,26.25562 7.72027,41.20491 0.80587,1.58157 6.28647,12.38715 7.18819,13.95983 1.26729,2.21026 2.71656,4.31107 4.07484,6.46661 0.0578,0.0804 -0.0558,0.16212 -0.11364,0.0818 l 0,0 c -4.99857,-6.12095 -10.26008,-12.09996 -13.92798,-19.16546 -1.28374,-2.41867 -2.68761,-4.7773 -3.85124,-7.25599 -5.84397,-12.44854 -6.43861,-17.61511 -5.27864,-31.36959 0.44553,-2.47986 -1.62343,-5.74603 1.69013,-12.03577 7.11942,-17.01238 24.15813,-27.79364 38.15333,-29.52421 10.5047,-1.07997 15.15084,-1.87439 23.38197,-0.52661 2.21236,0.49219 4.44945,0.88405 6.63707,1.47658 11.87557,3.21658 9.30025,0.0405 19.39394,6.9508 11.70362,8.46487 23.03561,17.49922 33.0311,27.96951 5.90813,6.31188 11.76152,12.80426 15.3931,20.75451 1.78644,4.18126 3.29098,8.46473 4.88972,12.71975 1.24361,2.72992 -2.61709,4.48866 -3.8607,1.75873 z"
         id="path3891"
         style="fill:#000000;fill-opacity:1;stroke:none" />
      <path
         inkscape:connector-curvature="0"
         d="m 387.95766,403.48227 c 1.12387,-1.1888 2.25268,-2.36943 3.45512,-3.47937 1.43189,-1.3902 3.04753,-2.52458 4.8693,-3.33295 1.59265,-0.58511 3.27816,-0.66681 4.93075,-0.33408 1.04441,0.38471 1.63697,0.67756 1.79936,1.82659 0.0562,0.0178 0.0309,0.0974 -0.0253,0.0795 l 0,0 c -0.54377,0.65043 -1.21953,0.94123 -2.07686,0.97815 -1.14491,0.0147 -2.3178,-0.13388 -3.42002,0.26487 -1.51181,0.61668 -2.80455,1.61241 -4.01111,2.70149 -1.13986,1.10775 -2.25057,2.24396 -3.33783,3.40339 -1.49032,1.54393 -3.67377,-0.56369 -2.18345,-2.10763 z"
         id="path3747"
         style="fill:#5f0000;fill-opacity:1;stroke:none" />
      <path
         inkscape:connector-curvature="0"
         d="m 337.21154,401.2853 c 6.45841,-1.95972 12.99852,-3.62858 19.48484,-5.49309 9.4219,-2.80164 18.62653,-6.27414 27.70966,-10.01721 5.75465,-2.31692 11.2025,-5.50247 17.26635,-6.96455 5.05157,-0.49773 7.5075,2.36414 9.90894,6.3546 3.02497,5.90801 4.295,12.45187 5.0151,18.99156 0.63283,6.80276 -0.026,13.74763 -3.78807,19.64176 -0.74838,1.1725 -1.69958,2.20244 -2.54937,3.30366 -1.04225,0.97925 -2.00242,2.05395 -3.12674,2.93775 -4.51229,3.54699 -11.04362,5.96393 -16.64554,7.04329 -1.46455,0.28218 -2.96051,0.36537 -4.44076,0.54806 -1.03091,0.22317 -1.34651,-1.23475 -0.31561,-1.45792 l 0,0 c 1.32845,-0.42144 6.92437,-2.17483 8.21538,-2.67248 5.01837,-1.93444 9.54656,-4.90203 13.38969,-8.65832 0.72204,-0.93247 1.52093,-1.81021 2.16613,-2.79741 3.37582,-5.16524 4.30804,-11.54647 4.27092,-17.58999 -0.21715,-2.14997 -0.44297,-4.91739 -0.8667,-7.05031 -0.74548,-3.75251 -2.06136,-7.40827 -3.71356,-10.84894 -1.60634,-2.87118 -3.27337,-5.64019 -6.97531,-5.27279 -5.97224,1.17299 -11.32286,4.30128 -16.86676,6.67812 -9.06574,4.09535 -18.25101,7.95214 -27.86225,10.60099 -6.48833,1.84313 -13.02177,3.51461 -19.56756,5.13949 -1.70856,0.50119 -2.41735,-1.91508 -0.70878,-2.41627 z"
         id="path3893"
         style="fill:#000000;fill-opacity:1;stroke:none" />
      <path
         inkscape:connector-curvature="0"
         d="m 456.50578,371.17693 c 4.742,5.29167 8.56939,11.34914 12.52455,17.2349 5.76934,8.69446 11.83589,17.18667 17.91799,25.66366 5.74253,7.60928 11.06924,15.48961 15.64059,23.85559 2.96289,5.71731 5.15235,11.78988 7.05149,17.93022 1.33121,4.20597 1.88937,8.57857 2.5006,12.92846 0.38847,3.3687 0.23631,6.74715 -0.12945,10.10584 -0.2437,2.86957 -0.68132,5.70462 -1.35645,8.50389 -0.51177,2.66038 -1.37644,5.21976 -2.40091,7.7208 -1.3163,2.80741 -3.31526,5.20604 -5.07767,7.73635 -0.91311,1.44243 -1.25372,2.42336 -2.74103,3.32626 -0.0425,0.0923 -0.17302,0.0322 -0.13052,-0.0601 l 0,0 c -0.28377,-1.96066 0.3466,-2.66404 1.37297,-4.29919 1.66336,-2.43753 3.49546,-4.78168 4.63193,-7.5341 1.05405,-2.3596 1.75794,-4.8311 2.32384,-7.35114 0.57847,-2.69186 1.39552,-5.37028 1.49154,-8.13505 -0.0419,-3.28809 -0.1586,-6.57521 -0.1277,-9.86519 0.0157,-4.28642 -0.65542,-8.49855 -1.92141,-12.59977 -1.81472,-6.03706 -4.13013,-11.88529 -7.45531,-17.27259 -4.90082,-8.0582 -10.47096,-15.66745 -16.00432,-23.29872 -6.19699,-8.44946 -12.42057,-16.8855 -18.14505,-25.6672 -3.79663,-5.86385 -7.49964,-11.80026 -11.86986,-17.26479 -1.17247,-1.34646 0.73171,-3.00458 1.90418,-1.65813 z"
         id="path3901"
         style="fill:#000000;fill-opacity:1;stroke:none" />
      <path
         sodipodi:nodetypes="ccccccccccccccccsccc"
         inkscape:connector-curvature="0"
         id="path4001"
         d="m 107.48023,507.88996 74.24621,-10.6066 1.41422,26.16295 97.25966,65.18986 80.93125,-20.64213 28.28427,16.26345 4.24264,33.23402 -2.82843,2.82843 -4.94975,91.21677 -7.07107,4.94975 -6.36396,-93.33809 c -33.05551,3.506 -66.53319,-0.1647 -98.99495,13.43503 l 7.77818,91.92388 c -2.46073,12.14338 -13.315,12.74565 -20.5061,18.38477 2.16551,-43.1777 -5.65464,-112.08373 -3.53553,-119.50104 l -135.0574,-72.12489 c -6.8264,-1.24116 6.73835,84.49923 4.24264,90.50966 -6.29632,15.16345 -10.94238,14.72057 -10.94238,14.72057 -2.19036,-38.07184 -12.53472,-77.77448 -6.57107,-114.21552 z"
         style="fill:#784421;stroke:none" />
      <path
         inkscape:connector-curvature="0"
         d="m 363.08729,469.16536 c -3.39537,3.72175 -7.98182,5.86292 -12.48565,7.91841 -7.43353,3.18312 -14.78398,6.53194 -22.00622,10.16904 -5.45381,2.84262 -11.11509,5.24829 -16.69684,7.82128 -2.22101,1.01112 -4.38474,2.15032 -6.43025,3.48217 -0.76308,0.67109 -1.85322,0.99205 -2.52538,1.76227 -0.0881,0.17232 0.004,0.32884 0.002,0.50915 0.0267,0.13067 0.01,0.0554 0.0322,0.22713 0.0242,0.76569 -0.40615,1.38137 -0.87963,1.93816 -0.36373,0.37341 -0.6271,0.81272 -0.91062,1.24507 -0.30873,0.32441 -0.63491,0.63325 -0.99404,0.90012 -0.35993,0.20405 -0.75108,0.18725 -1.079,0.44784 -0.66412,0.40686 0.98179,-0.52247 1.45523,-0.81347 0.41619,-0.25582 0.13159,-0.52227 0.60535,0.25769 1.56626,2.56789 3.16017,5.11241 4.60696,7.75194 1.46238,2.80539 2.83438,5.65538 4.287,8.46583 0.40266,0.63804 0.60827,1.09648 0.51904,1.80619 -0.0209,0.16614 0.11676,0.3948 -0.0117,0.50221 -0.40953,0.34243 -0.9575,0.47232 -1.43625,0.70847 -0.15061,-0.10017 -0.30123,-0.20034 -0.45185,-0.30052 -0.099,-2.2e-4 -0.0987,-0.14022 3.2e-4,-0.14 l 0,0 c 0.0834,-0.0996 0.16678,-0.19928 0.25018,-0.29893 -0.29802,0.18695 -0.62685,0.33201 -0.89406,0.56083 -0.0673,0.0577 0.0181,0.2219 -0.0627,0.2585 -0.51088,0.23156 -0.98654,-1.27446 -1.12252,-1.43786 -1.43583,-2.77797 -2.84535,-5.56967 -4.30913,-8.33323 -1.49213,-2.66019 -3.11312,-5.23953 -4.63662,-7.88054 -0.9336,-2.08449 -0.85342,-2.39913 1.12813,-3.72683 -0.0982,0.22663 -0.21642,0.20609 -0.45163,0.25684 -0.27122,0.16665 0.14621,-0.61295 0.2128,-0.72054 0.35337,-0.4594 0.79934,-0.80592 1.2066,-1.21445 0.15348,-0.19871 0.34253,-0.56396 0.27672,-0.0762 -0.008,-0.14462 -0.0314,-0.36765 0.002,-0.5321 0.0243,-0.74274 0.37977,-1.45372 0.81076,-2.04423 0.85975,-0.92536 1.85768,-1.68557 2.9462,-2.32778 2.16323,-1.3352 4.37808,-2.57271 6.67038,-3.6784 5.46844,-2.7807 10.7677,-5.85916 16.18904,-8.73043 7.23273,-3.65624 14.62111,-6.95859 22.00905,-10.285 3.84714,-2.00036 7.8832,-3.99164 10.88014,-7.20707 1.95055,-2.32985 5.24545,0.42863 3.29491,2.75848 z"
         id="path3907"
         style="fill:#000000;fill-opacity:1;stroke:none" />
      <path
         inkscape:connector-curvature="0"
         d="m 297.6278,510.81913 c -3.71933,1.0191 -7.38469,2.21176 -11.03375,3.45541 -4.72046,1.67765 -9.38485,3.42831 -13.73405,5.92831 -2.00337,1.46514 -4.85319,2.73944 -5.93565,5.14379 0.31858,0.21511 0.002,-0.51399 0.31408,-0.51699 1.06163,-0.0102 2.22705,0.21508 3.29479,0.25687 3.74792,-0.18863 7.46165,-0.75164 11.18641,-1.17977 1.6605,-0.10804 3.29481,-0.42303 4.93887,-0.65067 2.73709,0.25383 2.08893,2.57976 0.46936,3.81356 -1.45202,0.90681 -2.98484,1.66436 -4.56249,2.32384 -2.23531,0.89248 -4.46316,1.7931 -6.64694,2.80888 -0.67619,0.50596 -1.99987,0.65811 -2.40978,1.49339 -0.12694,0.26331 0.004,0.0188 0.0301,0.13549 0.432,0.80399 0.21006,1.62759 -0.0123,2.46579 -0.43763,1.2516 -0.97611,2.46458 -1.45202,3.70248 -0.0469,0.15327 -0.0937,0.30653 -0.14057,0.4598 0.0173,0.005 0.0519,0.0343 0.0518,0.0162 -6.3e-4,-0.19173 -0.008,-0.38659 -0.0536,-0.5727 -0.0297,-0.12003 -0.23479,-0.22448 -0.16994,-0.32977 0.006,-0.01 1.2562,-0.11535 1.33256,-0.12201 3.46449,-0.37255 6.87773,-1.103 10.27444,-1.86346 2.82542,-0.72236 5.68163,-1.37794 8.44228,-2.32703 1.69364,-0.54516 3.04273,-1.71634 4.42434,-2.7893 1.74176,-1.42347 3.54507,-2.76851 5.28593,-4.19329 1.04436,-0.72412 1.73444,-1.88399 2.76707,-2.60799 0.66338,-0.55807 1.373,-0.79716 2.23057,-0.8523 0.40435,0.0145 1.04748,-0.36418 0.50634,-0.69286 -0.53492,0.0779 -0.78882,0.55137 -0.85217,1.04758 0.56425,-2.15871 2.52017,-2.29126 4.38972,-2.53904 3.83556,-0.34175 7.60105,-1.09163 11.32494,-2.04909 5.99646,-1.70731 11.71378,-4.23252 17.51433,-6.4905 5.88923,-2.31402 11.91275,-4.25921 17.92448,-6.22427 3.31108,-1.09492 6.64087,-2.12686 10.00386,-3.05023 1.54923,-0.4244 3.13672,-0.69545 4.73328,-0.86003 1.01021,-0.0554 2.02554,-0.11588 3.03367,-0.0247 1.64386,0.26081 2.8041,1.43524 3.98929,2.4999 2.0689,1.6155 3.28278,3.72052 4.69304,5.85509 0.0565,1.89646 -0.30564,1.17986 0.71822,2.29913 0.074,0.0696 -0.0243,0.1743 -0.0984,0.10472 l 0,0 c -1.20021,-0.96914 -0.4471,-0.6114 -2.394,-0.72467 -1.94601,-1.45216 -3.92119,-2.81536 -5.59014,-4.60839 -0.56221,-0.52243 -1.12668,-1.05921 -1.74823,-1.50798 -0.7322,-0.12805 -1.49482,-0.005 -2.23163,0.0101 -1.376,0.11707 -2.69972,0.46987 -4.01797,0.87331 -3.2932,0.92442 -6.54718,1.97518 -9.78317,3.0832 -5.92478,1.98733 -11.86872,3.92542 -17.70666,6.16006 -5.94628,2.35559 -11.81825,4.94462 -17.94836,6.79687 -3.89564,1.02654 -7.83249,1.80964 -11.85334,2.14523 -2.59799,0.3377 -1.28271,0.62676 -0.68147,-1.34691 -0.0991,0.89793 -0.49391,1.67912 -1.37333,2.03098 -0.81238,0.12418 -1.56331,-0.0399 -2.3796,-10e-4 -0.65385,0.0385 0.0565,-0.33078 -0.27241,0.0849 -0.74501,1.15669 -1.98936,1.94879 -2.93446,2.92526 -1.74378,1.50229 -3.57601,2.88747 -5.44363,4.23179 -1.67954,1.2517 -3.39669,2.42424 -5.45375,2.96769 -2.87994,0.76903 -5.74799,1.58569 -8.65521,2.24914 -3.51901,0.81398 -7.04508,1.61216 -10.59884,2.25897 -2.32981,0.18754 -5.04343,-0.10508 -4.02621,-3.23939 0.35197,-1.2248 0.83996,-2.39876 1.28282,-3.59222 0.11698,-0.39717 0.12337,-0.78811 0.21717,-1.18982 -0.0543,-0.73418 0.0434,-1.44934 0.40308,-2.10389 0.86051,-1.23876 2.07307,-2.09584 3.44451,-2.71193 2.1784,-1.012 4.39949,-1.92404 6.52549,-3.04669 1.34397,-0.70364 2.71793,-1.34797 4.06518,-2.04324 0.0511,-0.0259 0.0961,-0.0747 0.15332,-0.0777 0.16966,-0.009 -0.14016,0.32972 -0.11192,0.49725 0.0981,0.58193 0.4626,1.7372 1.33307,1.384 -1.43518,-0.49 -3.18427,0.18867 -4.63978,0.10991 -3.80868,0.38929 -7.60562,0.93937 -11.43202,1.11858 -2.33265,0.10849 -6.6038,0.28389 -5.78981,-3.25375 1.58176,-2.67144 4.31284,-4.37157 6.80257,-6.11133 4.38517,-2.79693 8.80483,-5.59956 13.69002,-7.45615 3.67241,-1.43424 7.41532,-2.65371 11.21801,-3.69645 2.76491,-0.81925 3.9235,3.09092 1.15859,3.91016 z"
         id="path3909"
         style="fill:#000000;fill-opacity:1;stroke:none" />
      <path
         inkscape:connector-curvature="0"
         d="m 228.55196,457.03832 c 2.40901,8.54027 4.85079,17.06796 7.40313,25.56775 6.50461,20.92262 12.11497,42.09687 17.42524,63.34838 2.70381,11.99559 1.59696,6.18617 3.40512,17.41193 0.0506,0.20678 -0.24182,0.27837 -0.29244,0.0716 l 0,0 c -3.57647,-10.7702 -1.82759,-5.13157 -5.18966,-16.93347 -5.89668,-21.06471 -12.14779,-42.02716 -18.62016,-62.9221 -2.53609,-8.55286 -5.7805,-17.41756 -6.38237,-26.36736 -0.12496,-1.5918 2.12617,-1.76852 2.25114,-0.17672 z"
         id="path3913"
         style="fill:#1a1a1a;fill-opacity:1;stroke:none" />
      <path
         inkscape:connector-curvature="0"
         d="m 184.44352,512.14592 c 0.0119,2.73513 0.18357,5.46707 0.34707,8.1966 0.184,1.29356 0.0943,2.8408 0.95164,3.91831 1.98651,1.68398 4.37432,2.86407 6.64054,4.12071 7.53917,3.86502 14.5897,8.5321 21.52329,13.37617 8.18586,6.02809 16.46993,11.91186 24.93001,17.54838 6.43761,4.26509 13.00609,8.32708 19.51329,12.48422 4.76931,2.96203 9.26085,6.33128 13.68993,9.77269 1.30233,1.35799 3.95968,2.69832 4.90635,4.36093 0.17143,0.3011 0.21353,0.65924 0.32029,0.98886 0.0893,0.0485 0.0208,0.17476 -0.0685,0.1263 l 0,0 c -0.36861,0.0716 -0.7309,0.23572 -1.10582,0.21488 -1.8347,-0.10195 -4.3796,-2.3438 -5.92891,-3.17251 -4.50736,-3.22003 -8.84355,-6.67784 -13.43973,-9.77378 -6.47997,-4.23419 -13.11119,-8.23604 -19.50203,-12.60797 -8.40916,-5.74614 -16.68529,-11.68108 -24.91576,-17.67993 -6.79498,-4.87198 -13.73463,-9.54165 -21.18351,-13.37218 -2.5863,-1.44446 -5.44398,-2.7974 -7.35599,-5.13396 -0.85892,-1.52857 -1.1034,-3.22568 -1.29824,-4.95372 -0.35201,-2.79134 -0.45675,-5.6019 -0.48038,-8.414 0,-1.73701 2.4565,-1.73701 2.4565,0 z"
         id="path3917"
         style="fill:#1a1a1a;fill-opacity:1;stroke:none" />
      <path
         inkscape:connector-curvature="0"
         d="m 264.29167,568.30056 c 4.39363,-0.42777 8.79962,-0.54064 13.20984,-0.66416 6.74125,-0.22459 13.45069,-0.92862 20.12781,-1.85316 6.7504,-0.90107 13.32986,-2.64061 19.87207,-4.48015 5.10222,-1.56829 10.28497,-2.85103 15.47525,-4.08889 3.49619,-0.79198 7.03602,-1.3653 10.56668,-1.97792 2.74614,-0.57343 5.53088,-0.63166 8.3208,-0.53138 1.36599,0.10778 2.73191,-0.13463 4.09497,-0.0894 0.47494,0.0202 0.91662,0.0897 1.21101,-0.3369 2.09716,-0.1746 2.30332,2.06327 2.47708,3.61245 0.26625,2.57774 0.46376,5.16151 0.69298,7.74275 0.22038,2.45254 0.73244,3.43263 -0.90996,5.54872 -2.9932,2.03601 -6.8472,1.94132 -10.31365,2.37923 -9.47048,1.49743 -18.81301,3.58051 -28.06407,6.08381 -9.90089,2.87348 -19.7402,5.93302 -29.90066,7.75259 -3.20723,0.7014 -5.47846,0.66071 -8.61667,0.006 -0.10114,0.01 -0.11492,-0.13328 -0.0138,-0.14303 l 0,0 c 2.60533,-1.12294 5.2641,-1.97815 8.07934,-2.43926 9.9598,-2.49059 19.75801,-5.55854 29.70834,-8.08693 9.37928,-2.2559 18.77878,-4.46627 28.28538,-6.12458 2.69825,-0.61791 5.38796,-1.30559 8.02492,-2.14182 0.0159,1.29265 0.133,-2.374 -0.10767,-2.47298 -0.25876,-2.5828 -0.49194,-5.16803 -0.63276,-7.76028 -0.15193,-2.31239 -0.1889,-0.35871 1.28184,-0.74767 -0.27541,-0.42277 -0.68572,-0.35896 -1.14697,-0.32056 -1.32679,0.10403 -2.671,-0.0297 -3.99185,0.20162 -2.6347,0.4217 -5.25365,0.93769 -7.89468,1.32185 -3.46529,0.57028 -6.93688,1.11709 -10.36356,1.89522 -5.15381,1.17636 -10.19424,2.74945 -15.27744,4.19324 -6.6989,1.91218 -13.46815,3.60467 -20.40125,4.42252 -6.80825,0.87305 -13.64028,1.59024 -20.50521,1.80722 -4.45189,0.0825 -8.88165,-0.0907 -13.3075,-0.59406 -1.49502,-0.0137 -1.47566,-2.12797 0.0194,-2.11428 z"
         id="path3919"
         style="fill:#1a1a1a;fill-opacity:1;stroke:none" />
      <path
         inkscape:connector-curvature="0"
         d="m 329.04671,532.38513 c -2.76776,-1.19629 -5.38492,-2.7052 -7.9348,-4.30574 -0.81162,-0.35393 -0.31108,-1.50174 0.50054,-1.14781 l 0,0 c 2.93345,0.7911 5.82454,1.75847 8.49007,3.2431 1.56303,0.74658 0.50721,2.95703 -1.05581,2.21045 z"
         id="path3921"
         style="fill:#1a1a1a;fill-opacity:1;stroke:none" />
      <path
         sodipodi:nodetypes="cccccccccccccc"
         inkscape:connector-curvature="0"
         d="m 288.12314,509.49909 c -2.5285,-0.002 -5.0617,0.074 -7.58898,-0.0191 -1.0617,0.008 -2.11721,-0.11778 -3.17691,-0.15108 -0.74981,0.0304 -1.49356,0.12471 -2.23048,0.2633 -2.19417,0.60678 -4.435,1.02798 -6.67696,1.41827 -4.92021,0.61129 -9.77449,1.62783 -14.66498,2.42107 -0.57254,-0.56841 0.3751,0.19862 -0.45326,-1.90378 4.75741,-1.50373 9.60979,-2.64854 14.45645,-3.82516 2.28331,-0.51752 4.57085,-1.08074 6.90423,-1.31076 0.94897,-0.0946 1.87823,-0.0804 2.81882,0.0878 1.03509,0.078 2.07275,0.0973 3.10936,0.14823 2.4924,0.0585 4.98291,0.18272 7.4773,0.10007 1.95949,-0.018 1.98487,2.7532 0.0254,2.77114 z"
         id="path3923"
         style="fill:#1a1a1a;fill-opacity:1;stroke:none" />
      <path
         inkscape:connector-curvature="0"
         d="m 231.21018,456.44851 c 2.14649,0.42995 4.36092,0.65011 6.34307,1.63102 1.53123,1.03786 1.85175,2.87931 2.41902,4.52074 1.72348,4.66511 3.46551,9.32399 5.23705,13.97142 2.67571,7.69495 5.04129,15.49397 7.56018,23.24135 2.12629,6.56435 4.49119,13.04745 6.65379,19.59963 1.64098,4.68089 2.74717,9.50221 3.78349,14.34252 0.76607,3.50402 1.46781,7.02127 2.17968,10.53649 0.48244,2.93079 1.03214,5.85029 1.49771,8.78378 0.44375,2.4232 0.44694,4.88377 0.44943,7.33657 -0.13535,1.73556 0.26204,3.46716 -0.0715,5.18082 -0.10069,0.27023 -0.20138,0.54046 -0.30207,0.81069 0.0225,0.24087 -0.31809,0.27276 -0.34064,0.0319 l 0,0 c -0.14877,-0.24342 -0.29755,-0.48683 -0.44633,-0.73024 -0.70387,-1.63437 -0.79957,-3.44036 -1.09475,-5.18087 -0.23277,-2.34924 -0.45303,-4.70076 -0.76904,-7.04064 -0.45531,-2.87504 -1.03708,-5.72245 -1.9825,-8.48289 -0.90886,-3.48182 -1.69392,-6.99326 -2.44766,-10.51164 -1.06899,-4.70524 -2.38361,-9.35524 -3.86594,-13.9467 -2.18016,-6.55558 -4.49798,-13.06356 -6.68145,-19.61816 -2.48974,-7.74701 -4.93778,-15.50829 -7.32336,-23.28776 -1.3638,-4.78291 -2.89048,-9.50601 -4.63118,-14.16618 -0.3547,-1.08994 -0.61376,-2.25987 -1.13165,-3.27906 -1.49653,-1.29622 -3.59792,-1.40552 -5.44139,-1.89137 -1.30914,-0.2871 -0.90313,-2.1385 0.40602,-1.85141 z"
         id="path3925"
         style="fill:#1a1a1a;fill-opacity:1;stroke:none" />
      <path
         inkscape:connector-curvature="0"
         d="m 267.17234,547.69708 c 5.16069,2.69322 10.01813,5.90592 14.71498,9.3325 1.81815,1.20309 3.51659,2.48662 5.04271,4.03634 0.74527,0.47809 0.0691,1.53206 -0.67613,1.05397 l 0,0 c -2.05105,-0.74633 -3.91813,-1.77053 -5.75331,-2.96391 -4.97369,-2.88289 -9.8073,-5.99155 -14.7164,-8.98163 -1.75169,-0.98156 -0.36355,-3.45883 1.38815,-2.47727 z"
         id="path3927"
         style="fill:#1a1a1a;fill-opacity:1;stroke:none" />
      <path
         inkscape:connector-curvature="0"
         d="m 274.70909,541.3618 c 4.36201,4.0054 8.81045,7.91491 13.02206,12.07982 1.08497,1.75172 2.91706,2.83234 4.17406,4.42267 0.51862,0.65615 0.8592,1.43519 1.2888,2.15279 0.35475,0.30728 -0.0798,0.80897 -0.43456,0.50169 l 0,0 c -0.77762,-0.32808 -1.60814,-0.55168 -2.33286,-0.98425 -1.7445,-1.04124 -3.02245,-2.76501 -4.90138,-3.62266 -4.67005,-3.7619 -9.17789,-7.73573 -13.29509,-12.10358 -1.72992,-1.75289 0.74904,-4.19937 2.47897,-2.44648 z"
         id="path3929"
         style="fill:#1a1a1a;fill-opacity:1;stroke:none" />
      <path
         inkscape:connector-curvature="0"
         d="m 284.51139,543.65142 c 4.18401,2.86924 8.05606,6.15342 11.89785,9.45726 2.551,2.09382 1.45904,0.93882 3.3266,3.41633 0.23149,0.14992 0.0195,0.47729 -0.21201,0.32738 l 0,0 c -3.08267,-0.73025 -1.57517,-0.14977 -4.49217,-1.81821 -4.41036,-2.60196 -8.70543,-5.41588 -12.43075,-8.95921 -1.71371,-1.35092 0.19678,-3.77447 1.91048,-2.42355 z"
         id="path3931"
         style="fill:#1a1a1a;fill-opacity:1;stroke:none" />
      <path
         inkscape:connector-curvature="0"
         d="m 293.24305,541.06489 c 2.64845,1.89683 5.35211,3.77111 7.71427,6.02945 5.89978,5.64048 -1.9,-1.3434 3.54407,3.46422 0.35219,0.61585 0.70438,1.23169 1.05657,1.84754 0.10588,0.0679 0.01,0.21767 -0.0961,0.14974 l 0,0 c -0.73054,-0.0788 -1.46107,-0.15759 -2.19161,-0.23639 -1.49276,-0.81738 -3.05777,-1.5042 -4.51716,-2.37979 -2.78301,-1.66971 -5.18519,-3.90443 -7.69476,-5.93733 -2.07709,-1.54481 0.1076,-4.48225 2.18469,-2.93744 z"
         id="path3933"
         style="fill:#1a1a1a;fill-opacity:1;stroke:none" />
      <path
         inkscape:connector-curvature="0"
         d="m 301.38327,534.81782 c 0.53051,0.90031 1.47792,1.47576 2.0407,2.34617 0.33522,0.51846 0.51693,1.12138 0.7754,1.68207 0.32243,0.28543 -0.0812,0.74142 -0.40366,0.45599 l 0,0 c -0.60086,-0.20001 -1.24093,-0.30748 -1.80259,-0.60002 -0.91909,-0.47871 -1.54397,-1.41484 -2.47928,-1.87569 -1.42024,-1.32189 0.44919,-3.33041 1.86943,-2.00852 z"
         id="path3935"
         style="fill:#1a1a1a;fill-opacity:1;stroke:none" />
      <path
         inkscape:connector-curvature="0"
         d="m 268.74914,548.90891 c 6.73887,-0.81972 13.37077,-2.31186 19.99637,-3.75759 1.57681,-0.32026 3.14996,-0.65908 4.73042,-0.96078 1.52743,-0.29157 3.06532,-0.52645 4.59258,-0.8189 4.53951,-0.86928 8.24504,-1.92191 12.90109,-1.96387 0.0958,-0.0251 0.13128,0.11029 0.0355,0.13541 l 0,0 c -3.99825,2.2069 -7.88393,3.21983 -12.18256,4.68668 -1.481,0.50537 -2.94136,1.07073 -4.42751,1.56075 -1.54811,0.51046 -3.11563,0.96006 -4.67345,1.44008 -6.84324,1.77993 -13.83732,3.63612 -20.97246,3.23638 -2.516,0 -2.516,-3.55816 0,-3.55816 z"
         id="path3937"
         style="fill:#1a1a1a;fill-opacity:1;stroke:none" />
      <path
         inkscape:connector-curvature="0"
         d="m 281.33394,559.52583 c 5.63644,-1.74356 11.5603,-1.83745 17.39799,-2.17441 1.21136,-0.20731 1.50455,1.50581 0.29319,1.71312 l 0,0 c -5.61523,1.6251 -11.20367,3.59037 -17.07033,4.06211 -2.54617,0.43901 -3.16702,-3.16182 -0.62085,-3.60082 z"
         id="path3939"
         style="fill:#1a1a1a;fill-opacity:1;stroke:none" />
      <path
         inkscape:connector-curvature="0"
         d="m 521.54879,506.5012 c -0.36354,-3.68883 -0.66638,-7.38075 -1.07295,-11.06568 -0.81205,-5.59699 -1.21566,-11.23149 -1.48262,-16.87657 -0.19763,-6.588 -0.54054,-13.16729 -1.01436,-19.7409 -0.56103,-6.72895 -1.14149,-13.45558 -1.91824,-20.16348 -0.70434,-6.24521 -2.39092,-12.3056 -4.11334,-18.32957 -1.70127,-5.87045 -3.40186,-11.74065 -5.58518,-17.45279 -1.64542,-4.13752 -3.45933,-8.20386 -4.8556,-12.43518 -0.71484,-2.48359 -1.72846,-5.41693 0.24344,-7.6399 0.41406,-0.46679 0.98878,-0.76135 1.48317,-1.14203 4.41898,-1.92618 9.39568,-1.60497 14.10211,-1.36501 6.456,0.57419 12.90384,1.31064 19.25432,2.62163 4.80749,1.12328 9.3228,3.28163 12.1481,7.4925 0.56593,0.84348 0.98809,1.775 1.48214,2.66251 3.03501,7.35718 3.57214,15.41332 4.24707,23.25785 0.92469,12.04601 1.27184,24.12577 1.69053,36.19697 0.49489,12.61544 0.6104,25.23816 0.39212,37.86017 -0.24967,10.80746 -0.4909,21.61579 -1.09384,32.41016 -0.50501,9.60674 -2.14555,19.09048 -3.85162,28.54086 -1.56886,8.88832 -3.654,17.66213 -6.31271,26.28486 -2.01784,6.37116 -4.76452,12.46556 -7.6904,18.46104 -2.13556,4.66301 -5.47588,8.35614 -9.43301,11.53311 -0.36478,0.21425 -3.87437,2.31443 -4.36419,2.45355 -0.78459,0.22284 -1.63162,0.0618 -2.44201,0.15398 -0.63139,0.0718 -1.25088,0.22484 -1.87632,0.33726 -0.10554,0.0353 -0.15543,-0.11399 -0.0499,-0.14926 l 0,0 c 3.11862,-1.61382 0.15062,0.24329 2.83593,-2.68387 1.02234,-1.11442 2.58182,-1.66038 3.38807,-3.01745 1.00063,-0.93714 2.30711,-2.10309 3.19737,-3.15982 1.89435,-2.24859 3.14511,-4.95093 4.45544,-7.55416 2.80452,-5.78176 5.417,-11.66768 7.42181,-17.78093 2.60846,-8.44273 4.57866,-17.04446 6.07741,-25.75457 1.71125,-9.24092 3.28174,-18.5273 3.79972,-27.92563 0.55702,-10.73701 0.8044,-21.48611 1.08754,-32.23315 0.21769,-12.54799 0.0988,-25.09609 -0.13091,-37.64354 -0.27689,-11.99086 -0.63878,-23.9853 -1.53924,-35.94829 -0.6213,-7.24301 -1.04545,-14.69213 -3.7308,-21.52693 -2.64631,-5.13911 -5.02639,-6.45422 -10.59589,-7.93692 -6.13808,-1.24843 -12.36966,-1.96856 -18.60723,-2.51073 -3.83881,-0.22095 -7.75545,-0.38364 -11.52416,0.53777 -0.19739,0.035 -0.4358,-0.0846 -0.60068,0.0294 -0.63286,0.43763 0.45062,3.28438 0.55579,3.82393 1.35402,4.17975 3.13608,8.1915 4.77376,12.26446 2.17385,5.83542 3.90833,11.80869 5.60613,17.79793 1.81116,6.24193 3.59824,12.51895 4.28253,19.006 0.7373,6.7624 1.16678,13.55334 1.72105,20.33243 0.51515,6.61048 0.83652,13.23069 1.00092,19.85949 0.2371,5.55692 0.61029,11.10862 1.25766,16.63435 0.44048,3.78676 0.93765,7.60447 0.60331,11.42129 0.0445,2.27849 -3.1778,2.34136 -3.22226,0.0629 z"
         id="path3941"
         style="fill:#550000;fill-opacity:1;stroke:none" />
      <path
         inkscape:connector-curvature="0"
         d="m 506.32147,388.6899 c -4.16613,-0.64283 -8.31729,-1.33554 -12.50678,-1.81504 -6.0569,-0.84833 -12.19615,-1.09097 -18.2195,-2.14364 -0.10607,0.009 -0.11866,-0.14112 -0.0126,-0.15001 l 0,0 c 0.96314,-0.33706 1.90555,-0.74059 2.88944,-1.01118 5.11567,-1.40691 10.56314,-1.41926 15.81099,-1.11126 4.23102,0.41478 8.43533,1.00122 12.61549,1.77962 3.14769,0.40804 2.57064,4.85955 -0.57706,4.45151 z"
         id="path3943"
         style="fill:#550000;fill-opacity:1;stroke:none" />
      <path
         inkscape:connector-curvature="0"
         d="m 529.45054,532.03764 c -5.96873,2.13848 -12.09098,3.79082 -18.21945,5.3959 -11.41122,2.91782 -22.93312,5.36972 -34.43268,7.90816 -12.72294,2.84968 -25.56062,5.13023 -38.27604,8.01179 -10.0311,2.27042 -19.69782,5.75395 -28.87994,10.36045 -0.97859,0.53187 -1.9688,1.04293 -2.93579,1.59562 -1.37465,0.78571 -2.68912,1.61521 -3.97143,2.53982 -0.3473,0.25042 -1.35304,0.94689 -1.65197,1.46312 -0.0546,0.0942 0.18381,-0.11667 0.27572,-0.17501 1.83745,-0.0517 -0.3947,-1.43127 0.0859,-1.78097 0.19005,-0.13829 0.46312,0.0811 0.69575,0.11464 0.51582,0.0745 1.03011,0.16537 1.54941,0.20944 2.27348,0.19296 2.73619,0.0941 5.18901,0.01 10.67394,-0.71368 21.12565,-3.14819 31.48231,-5.69746 14.46029,-3.89731 28.82915,-8.13331 43.19764,-12.35557 11.02237,-3.19248 21.94868,-6.71279 32.67375,-10.79677 5.93273,-2.21117 11.54481,-5.14783 17.22472,-7.91777 2.43953,-1.1271 4.94632,-2.32293 7.62678,-1.48802 0.0843,-0.0568 0.16454,0.0624 0.0803,0.11919 l 0,0 c -0.0678,0.39115 -0.0552,0.80518 -0.20342,1.17345 -0.89492,2.22343 -3.53561,3.24758 -5.39506,4.40449 -5.76451,2.96485 -11.59026,5.83235 -17.64592,8.16218 -10.85246,4.09153 -21.87256,7.71202 -32.99742,10.99193 -14.4397,4.22856 -28.86487,8.51687 -43.39595,12.42331 -10.69501,2.65253 -21.48592,5.15066 -32.51618,5.8649 -2.85252,0.0583 -10.21153,0.57661 -11.85195,-2.72057 -0.35887,-0.7213 -0.20446,-1.59826 -0.30669,-2.39739 0.25545,-0.49685 0.44118,-1.03626 0.76637,-1.49054 0.44164,-0.61695 1.87289,-1.70644 2.41583,-2.09697 2.35881,-1.69665 4.90634,-3.11433 7.46005,-4.48962 9.55756,-4.68209 19.52913,-8.38906 29.92288,-10.77078 12.69612,-3.03737 25.46146,-5.76736 38.21619,-8.54549 11.44364,-2.52609 22.89961,-4.99992 34.33169,-7.57462 6.08286,-1.52131 12.10338,-3.2559 18.13641,-4.96108 3.18922,-0.95405 4.53845,3.55618 1.34924,4.51024 z"
         id="path3945"
         style="fill:#333333;fill-opacity:1;stroke:none" />
      <path
         inkscape:connector-curvature="0"
         d="m 415.12201,573.73074 c 1.24962,6.07399 1.57637,12.29853 1.86265,18.47844 0.37335,9.11027 0.49194,18.22818 0.54171,27.3451 0.0475,2.17064 -0.19114,4.37533 0.0892,6.54061 0.0455,0.35162 0.46774,1.22503 0.20895,0.67501 1.82184,-0.40683 3.46591,-1.21053 5.09391,-2.09966 1.89384,-1.02775 2.06542,-1.83969 2.17525,-3.82309 0.31006,-4.94731 -0.59992,-9.88609 -1.31957,-14.76276 -1.37667,-8.24426 -2.52793,-16.5229 -3.14833,-24.85969 0.25319,-2.79968 -0.61962,-5.80283 -0.0369,-8.59173 0.13815,-0.66113 0.51405,-1.24919 0.77108,-1.87379 -0.0103,-0.11567 0.15329,-0.13021 0.16358,-0.0145 l 0,0 c 0.36277,0.56476 0.83123,1.07424 1.08832,1.6943 1.08362,2.6135 0.84411,5.69379 1.712,8.36149 1.27912,8.21086 2.32813,16.4561 3.67373,24.6571 0.79689,5.33936 1.80942,10.83138 0.94156,16.22168 -1.00893,3.19154 -1.96005,3.86832 -4.98413,5.11195 -2.19055,0.95431 -4.32197,2.30299 -6.71308,2.57599 -0.4699,-0.17306 -0.99563,-0.23758 -1.40969,-0.5192 -2.32206,-1.57937 -1.71962,-6.97617 -2.02829,-9.2698 -0.0667,-9.05452 -0.11843,-18.1133 -0.5701,-27.15862 -0.40348,-6.11034 -0.98917,-12.19468 -1.6533,-18.27875 -0.28994,-2.50411 3.2514,-2.91415 3.54135,-0.41004 z"
         id="path3947"
         style="fill:#333333;fill-opacity:1;stroke:none" />
      <path
         inkscape:connector-curvature="0"
         id="path3949"
         d="m 529.71875,600.46875 c -0.61828,-0.0217 -1.26942,0.24787 -1.75,0.96875 -2.48573,3.80069 -5.53903,7.12565 -8.8125,10.25 -5.33509,4.69614 -11.43334,8.43289 -17.625,11.875 -6.756,3.70774 -14.07416,6.08151 -21.46875,8.125 -7.39388,1.97781 -14.9436,3.1967 -22.53125,4.125 -6.6459,0.80868 -13.32229,1.22017 -20,1.65625 -5.45234,0.29982 -10.8952,0.9016 -16.34375,1.25 -4.00516,0.4369 -7.97138,0.0425 -11.90625,-0.6875 -3.33785,-0.57579 -6.36485,-1.98839 -9.3125,-3.59375 -3.15742,-1.90493 -6.29553,-3.88469 -9.15625,-6.21875 -0.0705,-0.0603 -0.12029,-0.12593 -0.1875,-0.1875 l -0.3125,5.34375 c 2.40245,1.75075 4.949,3.32586 7.46875,4.90625 3.3273,1.96938 6.80927,3.59916 10.65625,4.25 4.30661,0.82508 8.674,1.25951 13.0625,0.90625 5.43721,-0.37828 10.87397,-0.88957 16.3125,-1.25 6.78465,-0.38249 13.56215,-0.68385 20.3125,-1.5 7.81908,-1.00173 15.63358,-2.19416 23.25,-4.28125 7.76372,-2.16511 15.4459,-4.71285 22.53125,-8.625 6.53526,-3.6716 12.81391,-7.78217 18.1875,-13.0625 3.44792,-3.36514 6.67882,-6.93394 9.15625,-11.09375 1.05727,-1.58594 -0.17104,-3.1085 -1.53125,-3.15625 z m -131.875,6.625 c -0.16905,-0.008 -0.33131,0.0127 -0.5,0.0312 -0.59374,0.0654 -1.12604,0.35863 -1.6875,0.5625 -1.03339,0.37524 -1.98279,0.86436 -2.875,1.4375 l 0.625,4.9375 c 1.29181,-1.29205 2.61954,-2.54631 3.90625,-3.84375 0.38085,-0.38403 0.89323,-0.6618 1.21875,-1.09375 0.38991,-0.51737 0.59705,-1.14945 0.90625,-1.71875 0.0987,-0.0514 0.0362,-0.1764 -0.0625,-0.125 -0.50739,-0.0421 -1.02411,-0.16372 -1.53125,-0.1875 z"
         style="fill:#550000;fill-opacity:1;stroke:none" />
      <path
         inkscape:connector-curvature="0"
         d="m 431.55928,602.03542 c 5.5939,-0.94727 11.10659,-2.22275 16.58979,-3.67095 8.73349,-2.5174 17.44869,-5.10674 26.09058,-7.9241 6.98492,-2.28258 13.92192,-4.71717 20.74269,-7.45308 3.93219,-1.79971 7.92669,-3.44439 11.91924,-5.10178 1.5097,-0.74601 3.11292,-0.7287 4.7486,-0.75863 0.0989,-0.0394 0.15464,0.10041 0.0558,0.13983 l 0,0 c -1.11882,1.05452 -2.16716,2.20188 -3.48116,3.02257 -3.67312,2.58577 -7.32888,5.17678 -11.59939,6.72783 -6.89086,2.85398 -13.91747,5.36305 -20.98191,7.75164 -8.7311,2.81728 -17.5186,5.45034 -26.39965,7.75817 -5.71397,1.49667 -11.54265,3.18643 -17.50323,3.02093 -2.48366,0.12821 -2.66498,-3.38422 -0.18132,-3.51243 z"
         id="path3951"
         style="fill:#550000;fill-opacity:1;stroke:none" />
      <path
         inkscape:connector-curvature="0"
         id="path3953"
         d="m 374.53125,574.4375 c -0.4412,-0.0114 -0.86986,0.11367 -1.28125,0.40625 l 3.5,2.03125 c 0.11959,-1.33626 -0.99718,-2.40598 -2.21875,-2.4375 z m -19.4375,50.03125 c -1.56391,0.0817 -3.12299,0.14717 -4.6875,0.21875 2.0063,7.14077 4.4267,14.15763 6.6875,21.21875 3.40953,10.6993 0.0269,0.26047 3.4375,10.5625 0.51812,1.56506 0.88997,3.19999 1.53125,4.71875 0.58179,1.37789 1.41571,2.62069 2.125,3.9375 0.0517,0.2214 0.3642,0.15894 0.3125,-0.0625 0.0495,-1.50725 0.27131,-3.02759 0.15625,-4.53125 -0.12743,-1.66533 -0.56087,-3.29712 -0.875,-4.9375 -1.12404,-5.86959 -1.02044,-5.08001 -2.5625,-10.96875 -1.99126,-6.73338 -4.17363,-13.41131 -6.125,-20.15625 z"
         style="fill:#000000;fill-opacity:1;stroke:none" />
      <path
         inkscape:connector-curvature="0"
         id="path3955"
         d="m 390.40625,631.84375 -0.5,9.34375 c 2.96598,6.92301 5.78383,13.90639 8.5625,20.90625 1.24267,3.25766 2.7035,6.43377 4.03125,9.65625 0.34064,0.82674 0.61034,1.67985 1.03125,2.46875 0.3714,0.69611 0.89556,1.28818 1.34375,1.9375 0.0902,0.3465 0.55895,0.2215 0.46875,-0.125 0.069,-0.8071 0.26655,-1.59761 0.21875,-2.40625 -0.0542,-0.91823 -0.30403,-1.82003 -0.5,-2.71875 -0.75243,-3.45062 -1.67096,-6.8768 -2.8125,-10.21875 -2.64326,-7.50115 -5.81098,-14.80672 -9.0625,-22.0625 -0.9707,-2.24483 -1.91992,-4.48412 -2.78125,-6.78125 z"
         style="fill:#000000;fill-opacity:1;stroke:none" />
      <path
         inkscape:connector-curvature="0"
         d="m 366.46473,662.69561 c 0.99562,3.78072 2.23699,7.48575 3.59404,11.15024 1.14635,3.12569 2.37053,6.23006 3.15703,9.47064 0.73634,3.77175 -1.64885,5.17781 -4.59675,6.72399 -5.05252,2.20838 -9.939,4.69523 -14.5433,7.7317 -4.73871,3.2738 -8.53266,7.52177 -11.42668,12.46798 -0.0966,0.53974 -1.64324,2.54994 -0.93717,3.30808 0.13813,0.14832 0.37075,-0.2132 0.57317,-0.20296 0.35132,0.0178 0.69799,0.0881 1.04699,0.1322 6.1424,0.29154 12.27314,-0.68018 18.33278,-1.57119 7.91132,-1.27007 15.76528,-2.84235 23.46244,-5.07524 5.12599,-1.55786 10.02928,-3.74458 14.83766,-6.08646 1.88405,-0.94519 3.6251,-2.08709 4.77165,-3.88276 0.79346,-1.59174 0.8066,-3.31905 0.63528,-5.04701 -0.37957,-3.40663 -1.45148,-6.82378 -1.15368,-10.2841 0.071,-0.82497 0.28882,-1.63065 0.43324,-2.44598 -0.0234,-0.1088 0.13049,-0.14186 0.15386,-0.0331 l 0,0 c 0.46779,0.68968 1.00385,1.3377 1.40337,2.06905 1.70779,3.12622 2.1278,6.84086 2.98892,10.24145 0.37099,2.79243 0.39802,5.41821 -1.40912,7.75978 -1.70781,2.09419 -3.72517,3.78107 -6.21548,4.89611 -4.97617,2.46424 -10.20378,4.33614 -15.49473,6.00677 -7.82428,2.3885 -15.71641,4.62617 -23.83067,5.80024 -6.52216,0.9805 -13.15395,2.04514 -19.7636,1.52945 -1.56988,-0.41504 -2.73657,-0.46134 -3.87577,-1.79266 -1.88215,-2.19957 -0.49205,-5.15189 0.54366,-7.32495 3.12028,-5.54926 7.3668,-10.25314 12.53175,-14.00153 4.67695,-3.23735 9.59374,-6.00264 14.84338,-8.21269 0.64952,-0.33504 1.27436,-0.71691 1.92686,-1.04609 0.40554,-0.2046 0.4835,0.62733 0.31524,-0.57279 -0.76001,-3.08128 -1.82121,-6.06879 -2.94713,-9.03431 -1.36722,-3.91392 -2.79977,-7.85899 -3.28239,-12.00103 -0.47579,-2.7755 3.44935,-3.44837 3.92515,-0.67287 z"
         id="path3957"
         style="fill:#000000;fill-opacity:1;stroke:none" />
      <path
         inkscape:connector-curvature="0"
         id="path3959"
         d="m 394.96875,567.78125 c -0.79121,0.067 -1.53873,0.32174 -2.3125,0.5 -2.81928,0.6495 -5.64335,1.32708 -8.3125,2.46875 -3.27805,1.51453 -6.50618,3.12606 -9.625,4.9375 l 4,2.3125 c 2.40903,-1.23967 4.82268,-2.48417 7.28125,-3.625 2.52718,-1.1665 4.97192,-2.49168 7.5,-3.65625 0.70266,-0.32368 1.45742,-0.54656 2.125,-0.9375 0.6057,-0.35471 1.12853,-0.8567 1.6875,-1.28125 0.42619,-0.1285 0.23869,-0.72225 -0.1875,-0.59375 -0.7153,-0.0403 -1.44237,-0.1855 -2.15625,-0.125 z"
         style="fill:#000000;fill-opacity:1;stroke:none" />
      <path
         inkscape:connector-curvature="0"
         id="path3961"
         d="m 337.03125,625.28125 c -1.69671,0.0768 -3.39772,0.1617 -5.09375,0.25 0.51785,2.08951 1.03248,4.19465 1.5625,6.28125 1.31988,5.29586 2.77882,10.53179 4.15625,15.8125 0.31507,2.18566 1.52014,4.56204 1.09375,6.8125 -0.79003,0.82927 -1.95506,1.32568 -2.96875,1.8125 -3.90947,1.67765 -7.70459,3.57096 -11.28125,5.875 -3.79951,2.45735 -6.73633,5.73731 -8.71875,9.78125 -1.28315,3.43756 -0.45934,6.87432 2.71875,8.9375 0.65405,0.4246 1.3938,0.68753 2.09375,1.03125 5.84155,2.11499 11.92285,1.42106 17.875,0.25 6.02782,-1.55276 12.09982,-3.34419 17.6875,-6.125 1.89737,-0.55852 3.201,-1.85033 4.59375,-3.15625 0.10497,-0.037 0.0424,-0.19325 -0.0625,-0.15625 -1.87226,-0.15474 -3.69774,-0.43585 -5.53125,0.1875 -5.97829,0.9577 -11.62757,3.25543 -17.5625,4.4375 -4.93719,0.86679 -9.99116,1.57217 -14.875,0 -1.65363,-0.68246 -3.09728,-1.17958 -2.375,-3.21875 1.48392,-3.23579 3.94253,-5.69489 6.875,-7.6875 3.44088,-2.16026 7.05696,-3.97615 10.8125,-5.53125 2.6411,-1.31253 5.23302,-2.74823 5.8125,-5.90625 0.20713,-2.93169 -0.63328,-5.79308 -1.3125,-8.625 -1.3752,-5.27019 -2.86314,-10.49757 -4.1875,-15.78125 -0.44693,-1.75941 -0.87572,-3.51936 -1.3125,-5.28125 z"
         style="fill:#000000;fill-opacity:1;stroke:none" />
      <path
         sodipodi:nodetypes="ccccccccccccccccccccccccccccccccccccccccccccccccccccccsccccccccccscccccccc"
         inkscape:connector-curvature="0"
         d="m 180.87997,501.13853 c -5.17196,1.13243 -10.44628,1.6799 -15.70079,2.2673 -10.1556,0.84585 -20.31124,1.66301 -30.45518,2.64316 -7.34717,0.65164 -14.67225,1.51317 -21.99948,2.35228 -1.00399,0.27158 -2.33969,0.0611 -3.26335,0.67618 -0.36448,0.24272 0.59068,-0.20327 0.64504,-0.23813 3.60705,3.99234 8.17179,6.94994 12.56725,9.98573 14.10286,9.16717 28.81977,17.34163 43.45191,25.6218 15.8628,8.77587 31.31076,18.25378 46.55772,28.05133 8.99741,5.81212 18.12018,11.41929 27.44025,16.69845 4.13237,2.25015 8.16776,4.69482 12.42173,6.71391 1.8608,0.84001 3.74399,1.62999 5.64194,2.38207 0.66415,0.26438 1.32648,0.5395 1.98266,0.81904 -0.0245,-0.0983 -1.24875,-0.0831 -0.48874,-0.12864 0.26038,-0.009 0.4811,-0.0454 0.69902,-0.1856 1.0512,0.0232 1.0259,0.5955 2.51503,1.64701 -0.33499,-0.39875 -0.66998,-0.79751 -1.00497,-1.19626 -0.0468,-0.0473 -0.20527,-0.12752 -0.14032,-0.14179 0.7431,-0.1633 1.52167,-0.006 2.28246,-0.0134 3.16754,-0.0324 1.54215,0.005 5.1597,-0.14435 10.32084,-0.83709 20.53452,-2.64606 30.78145,-4.0957 10.57668,-1.45259 21.19225,-2.61268 31.82621,-3.55184 6.23331,-0.60514 12.49693,-0.78713 18.73698,-1.29582 3.36793,-0.19382 6.66842,-0.88857 9.94474,-1.64917 2.3109,-0.54398 4.60521,-1.15041 6.90266,-1.74768 2.28334,-0.6016 4.57195,-1.17633 6.88149,-1.66842 1.99315,-0.42284 3.97929,-0.87623 5.96579,-1.32871 1.53721,-0.34881 3.06525,-0.73482 4.58835,-1.14102 1.24846,-0.33818 2.52534,-0.53582 3.7923,-0.78869 2.34943,-0.75183 0.79011,-0.91106 0.89342,4.91638 -2.10949,-0.24967 -4.13624,-0.94515 -6.1266,-1.65736 -3.05491,-1.07459 -5.88955,-2.58921 -8.5431,-4.43023 -2.07137,-1.47316 -3.94158,-3.19996 -5.92169,-4.78813 -1.29027,-1.06882 -2.65819,-2.04032 -4.10457,-2.88536 -2.03188,-1.06493 -2.98921,-1.68791 -4.10285,-3.7261 0.24621,-1.39723 0.0431,-1.43278 -0.83549,-2.15849 -0.0777,-0.0613 0.009,-0.17123 0.0867,-0.10992 l 0,0 c 0.90055,0.67805 0.93881,0.89711 2.15654,0.15588 2.13856,10e-4 3.2153,0.3417 5.13384,1.36207 1.77601,0.91177 3.50666,1.8974 5.07632,3.14147 1.86621,1.51866 3.70898,3.06666 5.61624,4.53359 2.25517,1.56496 4.66171,2.88733 7.24643,3.83278 1.58021,0.56097 3.17169,1.14257 4.83757,1.39039 0.7741,5.39336 2.35084,5.05976 -0.37271,5.43453 -1.1696,0.25046 -2.35581,0.4173 -3.51358,0.72266 -1.55158,0.41371 -3.0803,0.90354 -4.62307,1.34783 -1.98206,0.53342 -3.99212,0.94746 -5.98151,1.45231 -2.23124,0.59867 -4.47246,1.16027 -6.69344,1.79701 -2.33725,0.65245 -4.66693,1.33528 -7.02418,1.91276 -3.56813,0.88017 -7.18347,1.55324 -10.85251,1.83898 -6.21713,0.41664 -12.44209,0.71126 -18.6519,1.23392 -10.54101,0.96439 -21.06657,2.09543 -31.55872,3.5007 -10.43491,1.40539 -20.8492,3.12248 -31.36112,3.83765 -1.5173,0.0505 -8.241,0.51645 -9.68572,-0.35408 -0.62241,-0.37503 -1.07096,-0.98245 -1.60643,-1.47368 0.71941,0.39711 1.34678,1.16567 2.16849,1.1726 -0.10464,-0.11915 -0.21961,-0.17751 -0.3812,-0.18732 -0.47251,-0.0146 -0.87163,-0.0191 -1.30575,-0.20643 -0.72727,-0.22 -1.40277,-0.59697 -2.12081,-0.84458 -1.94256,-0.84742 -3.92571,-1.59941 -5.85216,-2.48348 -4.33847,-2.08974 -8.52927,-4.4647 -12.72428,-6.82575 -9.36859,-5.34936 -18.69952,-10.77491 -27.72018,-16.69968 -15.21044,-9.69548 -30.5415,-19.20183 -46.34351,-27.9143 -14.75972,-8.35242 -29.68567,-16.51066 -43.60737,-26.23078 -3.88601,-2.83514 -10.23111,-6.96619 -12.81148,-11.19055 -0.28185,-0.46142 -0.46241,-0.97754 -0.69361,-1.46631 -0.0205,-0.54078 -0.18447,-1.09532 -0.0615,-1.62235 0.56996,-2.44338 3.778,-2.49231 5.68453,-2.82838 7.34181,-0.9546 14.71056,-1.69503 22.07352,-2.46359 10.10007,-0.96275 20.20797,-1.89434 30.24135,-3.4315 5.13143,-0.75765 10.2369,-1.65928 15.3194,-2.69643 0.46606,0.85309 0.63094,3.40128 0.91488,4.5482 z"
         id="path3963"
         style="fill:#2b0000;fill-opacity:1;stroke:none" />
      <path
         inkscape:connector-curvature="0"
         d="m 108.89223,511.61805 c 1.75507,5.60015 2.30893,11.47029 2.81606,17.28794 0.35347,4.96943 0.53516,9.94909 0.59414,14.93017 -0.0436,2.09142 0.63824,2.3777 2.22079,3.61187 6.81991,4.55753 14.05029,8.47455 21.15684,12.56198 12.07015,7.04274 24.21606,13.94885 36.53706,20.54339 12.766,6.62799 25.90621,12.48913 38.90142,18.64524 10.28264,4.92131 20.27192,10.41701 30.05763,16.25659 5.52457,3.28445 11.01577,6.63057 16.69702,9.63996 3.48205,1.90172 7.12065,3.48038 10.79544,4.9637 2.41704,0.96981 4.8925,1.78244 7.37948,2.55147 0.72787,0.22693 1.50303,0.30651 2.21984,0.56693 -4.47081,4.04698 -2.39656,0.55192 -1.26302,-0.78633 2.42086,-2.06347 5.65029,-2.77028 8.63727,-3.63544 6.8094,-1.7711 13.79368,-2.72349 20.74219,-3.7611 11.12105,-1.67972 22.29659,-2.93136 33.49396,-3.96579 10.51865,-0.88894 21.03762,-1.77042 31.52743,-2.95811 5.89066,-0.6707 11.75723,-1.52311 17.62034,-2.39641 0.17794,0.42054 4.94021,-1.36803 3.26111,-0.54439 -0.70697,0.5648 -0.44842,1.40693 -0.80749,0.49062 -0.98051,-2.22269 -1.6729,-4.54595 -2.28753,-6.89113 -0.79472,-2.90902 -0.80813,-5.85345 -0.6165,-8.82954 0.0433,-0.67232 -0.0546,-1.36435 0.10746,-2.01829 0.1609,-0.64931 0.56258,-1.21387 0.84388,-1.8208 -0.0646,-0.45365 -0.12919,-0.90729 -0.19378,-1.36094 -0.0194,-0.0971 0.11787,-0.12452 0.13728,-0.0275 l 0,0 c 0.11599,0.44942 0.23199,0.89883 0.34798,1.34825 0.43672,0.52176 0.98485,0.96768 1.31017,1.56528 0.3185,0.58504 0.37432,1.27882 0.58258,1.91154 0.8593,2.61057 1.67152,5.22764 2.31075,7.90498 0.66209,2.29131 1.42609,4.53982 2.31189,6.75326 0.47548,1.71249 0.54352,3.29788 -0.6858,4.73406 -1.735,1.19836 -3.76262,1.4255 -5.82149,1.7359 -5.92072,1.03128 -11.88563,1.79411 -17.85139,2.51091 -10.52572,1.17477 -21.07391,2.09393 -31.63247,2.92071 -11.10476,1.02535 -22.19329,2.22313 -33.22337,3.885 -6.73999,0.99604 -13.52409,1.88389 -20.13226,3.58144 -2.14142,0.5867 -4.31574,1.1595 -6.31181,2.15383 -0.87626,0.25373 -1.78285,2.96752 -3.28983,2.60408 -0.94867,-0.086 -1.86491,-0.367 -2.77719,-0.63125 -2.69498,-0.71416 -5.31901,-1.65832 -7.918,-2.66372 -3.86112,-1.54216 -7.66381,-3.23241 -11.36101,-5.1371 -5.72377,-3.09249 -11.32996,-6.38989 -16.88806,-9.77107 -9.69356,-5.68417 -19.4648,-11.24647 -29.62643,-16.06519 -13.01969,-6.29277 -26.25564,-12.15422 -39.00318,-18.99624 -12.32875,-6.68969 -24.48954,-13.67852 -36.58448,-20.78161 -7.27832,-4.2646 -14.66296,-8.3954 -21.65132,-13.12509 -2.52646,-2.07875 -4.04753,-3.78825 -3.98064,-7.20687 -0.0815,-4.86613 -0.24007,-9.73312 -0.61104,-14.5868 -0.47226,-5.45277 -1.06083,-10.93119 -2.63953,-16.19453 -1.06343,-3.21564 3.48418,-4.71955 4.54761,-1.50391 z"
         id="path3965"
         style="fill:#2b0000;fill-opacity:1;stroke:none" />
      <path
         inkscape:connector-curvature="0"
         d="m 258.67674,639.70941 c 2.48567,7.18772 2.87799,14.89648 3.41695,22.41903 0.80112,14.87349 0.36672,29.78137 0.0955,44.66461 -0.15029,10.6952 -0.28369,21.38961 0.004,32.0829 0.11413,1.97825 0.0722,3.9996 0.46962,5.95353 0.12827,0.63065 0.3233,1.34621 0.48984,1.02832 0.29033,-0.4086 -0.5727,-0.23127 -0.53476,-0.46425 0.0154,-0.0943 2.87665,-2.7378 3.01854,-2.87879 2.70813,-2.86621 6.00992,-5.04037 9.00017,-7.57835 2.19103,-1.6538 2.68517,-3.64196 2.95065,-6.22904 -0.0145,-6.7559 -0.981,-13.48729 -1.68548,-20.19942 -1.3719,-12.39518 -2.57552,-24.80581 -3.5714,-37.23661 -0.73331,-9.10467 -1.06538,-18.21573 -0.5427,-27.33416 1.13613,-2.60832 1.02785,-1.36989 0.74987,-3.65332 -0.0208,-0.0995 0.11984,-0.12889 0.14065,-0.0294 l 0,0 c 0.67764,2.27405 0.13816,1.07095 1.89338,3.47295 1.84887,8.93867 1.80545,18.08566 2.64227,27.15026 1.00517,12.39021 2.22868,24.75967 3.5809,37.11678 0.74081,7.0589 1.66122,14.1636 1.32199,21.27343 -0.58745,4.22114 -1.55077,6.34236 -5.22687,8.68291 -3.15745,2.07186 -6.16099,4.37498 -8.85403,7.03162 -1.46736,1.39735 -3.59122,4.10946 -5.92719,3.80252 -0.45197,-0.0594 -0.8386,-0.3577 -1.2579,-0.53655 -2.13062,-2.52145 -1.73078,-6.15989 -2.09742,-9.25584 -0.43729,-10.73752 -0.11689,-21.48636 -0.12928,-32.22891 -0.0252,-14.78301 0.13225,-29.57663 -0.54382,-44.34843 -0.51327,-7.20435 -1.08101,-14.44043 -3.1179,-21.40762 -0.91793,-2.62633 2.79626,-3.92447 3.71418,-1.29814 z"
         id="path3967"
         style="fill:#2b0000;fill-opacity:1;stroke:none" />
      <path
         inkscape:connector-curvature="0"
         d="m 110.58759,558.2498 c 0.56978,7.85611 0.93548,15.72775 1.26984,23.59717 0.48978,13.76615 1.0541,27.52684 2.01687,41.26878 0.61565,8.6518 1.24069,17.30355 2.27262,25.91695 0.27245,3.13297 0.9439,6.19527 1.62929,9.25461 0.1882,0.25041 0.0128,1.62054 0.39916,1.7203 0.14727,0.038 -0.17343,-0.25642 -0.29437,-0.34865 -0.079,-0.0336 -0.23611,-0.0149 -0.23702,-0.10072 -0.001,-0.11739 0.15139,-0.17974 0.23315,-0.26399 0.18582,-0.1915 0.38695,-0.36797 0.56919,-0.56288 0.86759,-0.92789 1.61277,-1.945 2.3618,-2.96804 1.84455,-2.54383 2.80392,-5.42184 3.31608,-8.48678 0.72174,-4.07982 0.36929,-8.16626 -0.11194,-12.24309 -1.20324,-6.9744 -2.2523,-13.96781 -3.13471,-20.98972 -1.2361,-9.6372 -1.79694,-19.3285 -1.81169,-29.03962 0.009,-0.92763 0.0362,-7.22307 0.18274,-8.3233 0.15874,-1.19208 0.56956,-2.3368 0.85434,-3.5052 -0.007,-0.28055 0.39009,-0.28998 0.39676,-0.009 l 0,0 c 0.33984,1.14765 0.79466,2.26736 1.01952,3.44297 0.068,0.35578 0.77529,8.11453 0.7857,8.22727 0.98213,9.55506 1.83105,19.12415 2.93218,28.66657 0.85973,7.0247 1.93191,14.01282 3.08699,20.99407 0.59204,4.54356 0.83771,9.12813 -0.13095,13.64662 -0.89782,3.5581 -2.16584,6.93405 -4.64937,9.71955 -1.17856,1.47052 -2.9301,4.06207 -4.70736,4.81403 -0.41281,0.17467 -0.8725,0.20601 -1.30875,0.30902 -0.40868,-0.12007 -0.84589,-0.16807 -1.22606,-0.3602 -1.13951,-0.57589 -1.73361,-2.19423 -2.34437,-3.20966 -1.13631,-3.17887 -1.32869,-6.58756 -1.84598,-9.90041 -1.03934,-8.68131 -1.94747,-17.3796 -2.57173,-26.10161 -0.93352,-13.78014 -1.57185,-27.57429 -1.96835,-41.38083 -0.35328,-7.92266 -1.02366,-15.85637 -0.97967,-23.78378 0,-2.82566 3.99609,-2.82566 3.99609,0 z"
         id="path3969"
         style="fill:#2b0000;fill-opacity:1;stroke:none" />
      <path
         inkscape:connector-curvature="0"
         d="m 391.84378,618.37356 c 1.05504,6.37932 1.10998,12.88935 1.2943,19.33948 0.3427,11.59601 -0.0442,23.18743 -0.80665,34.75765 -0.76863,10.09284 -1.70704,20.16722 -3.22483,30.17663 -0.50958,4.24753 -1.68353,8.27301 -4.17918,11.76458 -1.31832,1.6132 -2.68105,3.21072 -4.32432,4.50269 -1.9915,1.77268 -3.30577,0.8883 -4.08049,-1.46691 -1.01513,-3.86879 -1.05223,-7.9183 -1.23246,-11.89125 -0.31705,-8.21798 -0.79415,-16.4266 -1.27182,-24.63646 -0.43858,-7.51216 -0.91858,-15.02173 -1.37241,-22.53296 -0.29605,-4.94705 -0.57186,-9.89516 -0.74414,-14.84818 -0.14835,-3.72209 -0.11733,-7.447 -0.13847,-11.17097 -0.0359,-2.42138 0.10646,-4.83812 0.29309,-7.25083 0.16251,-0.5447 0.4077,-2.07159 0.81167,-2.50032 0.26317,-0.27931 0.65154,-0.4057 0.97731,-0.60855 -0.0123,-0.22707 0.3088,-0.24451 0.32113,-0.0174 l 0,0 c 0.34696,0.18749 0.7582,0.28747 1.04088,0.56248 0.42698,0.41539 0.71386,2.01201 0.86562,2.56693 0.18243,2.40652 0.31911,4.81668 0.29536,7.23141 0.005,3.67599 0.0829,7.35124 0.1699,11.02613 0.17065,4.91369 0.40694,9.82383 0.71118,14.73118 0.45438,7.52024 0.91243,15.04037 1.3125,22.56373 0.41736,8.22797 0.71935,16.4613 1.02118,24.6942 0.1634,3.80273 0.37632,7.60376 0.46844,11.40884 -0.0111,0.15327 0.10122,0.38543 -0.0333,0.45982 -0.12463,0.0689 -0.20883,-0.21438 -0.34686,-0.24953 -0.45258,-0.11526 -0.9208,-0.19061 -1.38783,-0.19225 -0.10934,-3.9e-4 -0.2544,0.29466 -0.26992,0.18642 -0.0392,-0.27338 0.85122,-0.14654 0.67645,-0.47838 1.41175,-1.12969 2.98969,-2.09002 4.10561,-3.54266 2.04941,-3.20679 1.78365,-7.26416 2.67116,-10.86395 1.49939,-9.87684 2.61738,-19.82263 2.8389,-29.81911 0.35254,-11.47606 0.71166,-22.96078 0.36566,-34.44193 -0.16001,-6.25157 -0.33241,-12.51077 -1.06874,-18.72693 -0.51872,-2.99887 3.72232,-3.73244 4.24103,-0.73357 z"
         id="path3971"
         style="fill:#2b0000;fill-opacity:1;stroke:none" />
      <path
         inkscape:connector-curvature="0"
         d="m 458.79237,646.37667 c -0.13925,4.24728 -0.15819,8.49733 -0.20661,12.74631 0.34492,2.50361 -0.67046,6.23419 0.33438,8.59596 1.04193,-0.0116 2.22893,0.21581 3.35027,0.22305 1.2974,-0.10507 3.03724,-0.18737 3.44775,-1.65995 0.60632,-3.04716 0.0534,-6.2072 -0.18573,-9.27169 -0.27459,-2.62579 -0.0876,-5.24882 0.16361,-7.86488 0.0752,-0.78322 0.0398,-1.58747 0.24099,-2.34812 0.19188,-0.72542 0.61548,-1.36873 0.92322,-2.0531 -0.003,-0.10639 0.14703,-0.11123 0.15046,-0.005 l 0,0 c 0.35092,0.65848 0.80955,1.27004 1.05277,1.97544 0.25404,0.73677 0.2792,1.53347 0.42128,2.29974 0.47267,2.54917 0.94898,5.10146 1.04658,7.70078 0.26271,3.77782 0.86551,7.79221 -0.4784,11.42617 -1.8065,2.80299 -3.50215,2.9707 -6.63078,3.42386 -2.7962,0.22086 -5.76559,0.30041 -7.33084,-2.46223 -1.09485,-3.22152 -0.53921,-6.6576 -0.65212,-10.00458 0.002,-4.28748 0.0286,-8.57515 0.1199,-12.86174 0.0989,-2.99338 4.33213,-2.85357 4.23327,0.13981 z"
         id="path3973"
         style="fill:#4d4d4d;fill-opacity:1;stroke:none" />
      <path
         inkscape:connector-curvature="0"
         d="m 464.64484,673.31434 c 4.80999,3.80908 9.89888,7.24416 14.9973,10.6502 5.38863,3.63399 10.84335,7.17084 16.18963,10.86736 0.9298,0.63677 1.85215,1.28554 2.74904,1.96818 0.84052,0.63975 0.13595,0.30872 -1.21143,0.22444 -0.39404,0.38162 -0.78808,0.76324 -1.18212,1.14485 -0.0178,0.0265 -0.0402,0.10866 -0.0535,0.0796 -0.30825,-0.67868 -0.27852,-1.88008 -0.37564,-2.59746 -0.29139,-2.35123 -0.30858,-4.7218 -0.34025,-7.08716 0.0104,-1.91686 0.0878,-1.62022 -1.21556,-2.6298 -3.18771,-2.29493 -6.54543,-4.34275 -9.81602,-6.51647 -3.08547,-2.09039 -6.16303,-4.2583 -8.85857,-6.84811 -0.0592,-0.0569 -3.74602,-3.92267 -3.86898,-4.05157 -2.09763,-2.47871 -1.20802,-1.16963 -2.70154,-3.9048 -0.0805,-0.0619 0.007,-0.17584 0.0876,-0.1139 l 0,0 c 3.06626,0.77514 1.57138,0.20695 4.46945,1.74403 4.6345,2.89641 9.21067,5.86206 13.62653,9.08961 3.43351,2.34907 6.90425,4.67235 10.1075,7.33208 1.80776,1.85299 2.45091,3.2609 2.18586,5.84581 0.0287,2.20143 0.17775,4.39961 0.41981,6.58766 0.1149,0.85486 0.73532,3.49069 0.3087,4.22542 -0.34456,0.59341 -0.87379,1.05827 -1.31068,1.5874 -0.60203,0.002 -1.20653,0.0604 -1.80608,0.006 -1.21766,-0.11082 -2.63807,-1.90282 -3.76019,-2.22371 -5.51599,-3.46434 -10.94297,-7.06869 -16.37902,-10.65641 -5.23059,-3.53152 -10.56307,-6.98499 -15.21501,-11.27914 -2.43519,-2.08818 0.51794,-5.53206 2.95313,-3.44388 z"
         id="path3975"
         style="fill:#4d4d4d;fill-opacity:1;stroke:none" />
      <path
         inkscape:connector-curvature="0"
         d="m 433.69049,658.14157 c -0.57881,3.05215 -0.29092,5.95488 0.89807,8.80282 0.84245,1.33514 2.0477,2.31596 3.23234,3.32682 0.10133,0.0326 0.0552,0.1759 -0.0461,0.1433 l 0,0 c -2.49161,0.0752 -3.90584,0.0384 -5.87097,-1.71197 -0.45194,-0.54739 -0.9909,-1.03329 -1.3558,-1.64215 -1.70853,-2.85079 -1.3528,-6.45965 -0.8749,-9.57973 0.46734,-2.8407 4.4847,-2.17979 4.01736,0.66091 z"
         id="path3991"
         style="fill:#000000;fill-opacity:1;stroke:none" />
      <path
         inkscape:connector-curvature="0"
         d="m 455.30962,660.55459 c -3.4145,-2.22481 -6.89456,-4.34561 -10.37805,-6.45989 -3.10388,-1.87823 -6.26657,-3.68729 -9.78103,-4.6577 -0.46482,-0.0771 -2.90878,-0.8919 -2.97712,-0.10451 -0.25406,1.35348 -0.30758,2.58205 0.10908,3.92151 1.79693,3.57859 5.1901,6.00865 8.25777,8.43384 3.24154,2.77024 7.66791,5.06066 10.08367,8.65077 0.11707,0.37111 0.23415,0.74222 0.35123,1.11333 0.0933,0.0606 0.008,0.1926 -0.0857,0.13199 l 0,0 c -0.38965,0.042 -0.7793,0.084 -1.16895,0.12607 -4.38967,-0.85247 -8.21583,-4.23651 -11.83937,-6.65529 -3.78448,-2.98627 -7.7889,-6.12419 -9.66412,-10.71404 -0.67738,-2.77336 -0.73355,-5.67268 1.0653,-8.05662 0.35421,-0.2929 0.66606,-0.64635 1.06264,-0.87869 1.84076,-1.07847 4.11544,-0.48718 6.0358,-0.0571 3.80964,1.22424 7.35549,3.02699 10.70888,5.21365 3.5262,2.16777 7.06054,4.33063 10.4802,6.66407 2.35369,1.5982 0.0935,4.92682 -2.26021,3.32861 z"
         id="path3977"
         style="fill:#4d4d4d;fill-opacity:1;stroke:none" />
      <path
         inkscape:connector-curvature="0"
         d="m 452.08526,672.2883 c -4.07954,0.86195 -8.24033,1.24831 -12.37493,1.74773 -3.64804,0.45743 -7.28458,1.00019 -10.93638,1.42704 -1.74103,0.19581 -3.47784,0.42949 -5.2297,0.50388 -0.87858,0.0105 -1.7351,0.18187 -2.57989,0.40929 -0.36447,0.0991 -0.74441,0.16621 -1.08826,0.31832 0.59766,-0.12389 0.96477,-0.65034 1.15633,-1.18836 -0.0108,0.38274 0.047,0.76254 0.0433,1.14476 0.14682,0.8475 0.0154,1.6854 -0.10002,2.52603 -0.33437,1.98226 -0.34427,3.99977 -0.4048,6.00376 -0.0393,1.85264 0.0105,3.72449 0.49226,5.5229 0.15964,0.72827 0.4771,0.75179 -0.0756,0.24889 1.10259,0.17634 2.23107,0.18954 3.35033,0.22889 1.149,-0.0931 2.44673,-0.03 3.43369,-0.71831 0.72884,-0.624 0.96848,-1.5751 1.25311,-2.45108 0.41361,-2.35164 1.2931,-4.30045 2.91291,-6.0527 3.31592,-2.62193 7.5337,-3.64864 11.53646,-4.7455 4.49812,-1.03944 8.93716,-2.71526 13.59218,-2.77346 2.14179,-0.73329 1.44946,1.21757 3.52975,0.16306 0.0879,-0.0456 0.15237,0.0786 0.0645,0.12426 l 0,0 c -0.25848,0.13735 -0.59964,0.17803 -0.77543,0.41206 -2.09487,2.78895 0.95152,0.3852 -1.86705,2.31523 -3.94722,2.59955 -8.72163,3.27981 -13.19244,4.59608 -3.21205,0.91556 -6.54063,1.71207 -9.48722,3.32972 -1.25588,0.98123 -1.45706,2.5848 -1.87926,4.0406 -0.64086,2.04717 -1.58703,3.92216 -3.45263,5.11504 -1.81371,0.91323 -3.73599,1.33834 -5.77789,1.22141 -1.71368,-0.0229 -3.48647,0.027 -5.13547,-0.4881 -1.3998,-0.73035 -2.22977,-1.82013 -2.62265,-3.35846 -0.58208,-2.23931 -0.72272,-4.54007 -0.64688,-6.84989 0.0454,-2.2361 0.10228,-4.48401 0.4593,-6.69613 0.12059,-0.5679 0.29495,-1.11617 0.34515,-1.69282 -0.0103,-0.54113 0.061,-1.08271 0.0697,-1.62418 0.1993,-1.08747 0.70155,-2.0281 1.83542,-2.37076 0.51833,-0.127 1.02452,-0.29498 1.54811,-0.40178 1.00796,-0.17578 2.02456,-0.29417 3.03179,-0.47421 1.68374,-0.27209 3.38813,-0.39428 5.07338,-0.65742 3.65721,-0.57092 7.28302,-1.33728 10.95766,-1.7954 3.96341,-0.47871 7.94671,-0.86828 11.85443,-1.71128 3.28867,-0.76839 4.37534,3.88249 1.08667,4.65089 z"
         id="path3979"
         style="fill:#4d4d4d;fill-opacity:1;stroke:none" />
      <path
         inkscape:connector-curvature="0"
         d="m 473.88645,661.44317 c 3.96408,-1.49673 8.10335,-2.36839 12.27423,-3.03806 4.12917,-0.59953 8.2933,-0.92404 12.45938,-1.12174 2.96294,-0.15615 4.63981,0.65799 5.26506,3.71918 0.13188,2.388 0.12986,4.77041 0.407,7.15013 0.13562,1.37192 0.5196,2.69772 0.81396,4.03871 0.84334,2.87982 -1.8013,3.42138 -3.85195,3.60349 -2.57027,0.0921 -5.14204,-0.0273 -7.70038,-0.27111 -3.37216,-0.52887 -6.97464,-0.75257 -10.20116,-1.96954 -0.72215,-0.27238 -1.38362,-0.68436 -2.07544,-1.02654 -0.11598,-0.006 -0.10794,-0.16971 0.008,-0.16403 l 0,0 c 0.72958,-0.2725 1.43373,-0.62643 2.18874,-0.8175 3.34026,-0.84531 6.94918,-0.42259 10.34608,-0.49639 2.41073,0.055 4.8195,0.22809 7.23153,0.19928 0.2026,0.004 0.40516,0.0103 0.60779,0.0106 0.086,1.1e-4 0.29775,-0.0855 0.25778,-0.009 -0.0741,0.1411 -0.30262,0.1398 -0.39456,0.26997 -1.00824,1.42745 -0.70001,0.88312 -0.67015,2.07867 0.002,0.0796 -0.0337,-0.15571 -0.0505,-0.23356 -0.49465,-1.52615 -0.78653,-3.10872 -1.01668,-4.69381 -0.26261,-2.30493 -0.37467,-4.61252 -0.39035,-6.93181 0.004,-0.0709 -0.0593,-0.21657 0.0116,-0.21264 0.1174,0.007 0.16661,0.17039 0.26899,0.22821 0.16595,0.0937 0.73536,0.19763 0.55599,0.13325 -0.14314,-0.0514 -0.2977,-0.0701 -0.4496,-0.0776 -0.30773,-0.0152 -0.61617,0.006 -0.92426,0.01 -4.00653,0.23009 -8.01154,0.52722 -11.98352,1.1201 -3.93375,0.60517 -7.86631,1.27868 -11.70232,2.35835 -2.72655,0.90887 -4.01188,-2.94706 -1.28533,-3.85593 z"
         id="path3981"
         style="fill:#4d4d4d;fill-opacity:1;stroke:none" />
      <path
         inkscape:connector-curvature="0"
         d="m 488.13419,697.65719 c -2.09254,2.75814 -2.47348,5.96337 -2.01555,9.29291 0.99008,3.7446 3.6057,6.41407 6.72211,8.53006 2.18914,1.21791 3.11598,1.62879 4.23483,-0.6732 1.38867,-3.37606 0.82347,-6.81109 -0.19472,-10.18501 -0.42036,-1.04073 -0.79411,-2.14867 -1.44924,-3.0794 -0.28641,-0.40691 -0.72498,-0.69269 -1.00416,-1.1046 -0.30389,-0.44836 -0.48591,-0.9682 -0.72886,-1.45229 -0.44566,-0.28201 -0.0469,-0.91227 0.39882,-0.63027 l 0,0 c 0.65898,0.0866 1.36335,0.004 1.97695,0.2599 1.65455,0.68885 3.47589,3.25436 4.39497,4.6824 0.31707,0.75096 0.7041,1.47608 0.95122,2.25287 1.21297,3.81283 0.77767,7.88675 -0.83784,11.4943 -0.40451,0.57251 -0.72192,1.21782 -1.21355,1.71753 -2.54615,2.58794 -5.99898,1.61176 -8.72885,-0.0371 -4.09447,-2.77338 -7.40472,-6.33443 -8.35818,-11.35685 -0.0725,-0.8229 -0.21808,-1.64263 -0.21746,-2.46872 0.003,-3.46701 1.34393,-6.81419 3.34974,-9.58946 1.65951,-1.92317 4.37929,0.42374 2.71977,2.34691 z"
         id="path3983"
         style="fill:#000000;fill-opacity:1;stroke:none" />
      <path
         inkscape:connector-curvature="0"
         d="m 505.25624,696.86434 c 2.71256,3.42888 4.56466,7.35168 5.98903,11.45752 1.01724,3.39628 1.15196,7.19667 -1.84798,9.65705 -0.46577,0.382 -1.03199,0.62164 -1.54798,0.93246 -2.39691,0.32444 -1.19973,0.34402 -3.59146,-0.062 -0.10819,0.0261 -0.14509,-0.1269 -0.0369,-0.153 l 0,0 c 1.57933,-1.31752 0.8353,-0.68601 2.23523,-1.89083 0.52868,-0.40993 1.05556,-0.68887 1.30906,-1.35334 0.67415,-1.76705 -0.27383,-3.9472 -0.64308,-5.63438 -1.37428,-3.6031 -3.18165,-6.97786 -5.61262,-9.99145 -2.09449,-2.64932 1.65221,-5.61138 3.7467,-2.96205 z"
         id="path3985"
         style="fill:#000000;fill-opacity:1;stroke:none" />
      <path
         inkscape:connector-curvature="0"
         d="m 502.4079,669.3623 c 2.98572,1.13481 5.87865,2.947 7.4433,5.83944 0.32996,0.60998 0.52517,1.28373 0.78775,1.9256 0.72773,3.27133 -0.27951,6.73115 -3.50041,8.25097 -0.54298,0.25621 -1.14733,0.35428 -1.721,0.53141 -1.66976,-0.0135 -3.75706,0.0202 -5.23305,-0.95447 -0.53748,-0.35493 -0.90506,-0.91668 -1.35759,-1.37502 -0.15468,-0.0396 -0.0987,-0.25836 0.056,-0.21875 l 0,0 c 0.55802,-0.19956 1.0965,-0.46585 1.67406,-0.59867 1.12971,-0.25979 2.33875,0.0186 3.32667,-0.78648 1.28518,-0.75799 2.29464,-1.47173 2.1081,-3.13256 -0.73173,-2.53527 -2.72341,-4.08892 -5.12308,-5.03974 -3.14079,-1.08841 -1.60154,-5.53014 1.53924,-4.44173 z"
         id="path3989"
         style="fill:#000000;fill-opacity:1;stroke:none" />
      <path
         inkscape:connector-curvature="0"
         d="m 506.21067,667.3967 c 4.24608,1.41134 6.83445,4.87916 8.81789,8.69076 0.97655,2.26057 2.2442,6.60505 -0.2512,8.43564 -0.3567,0.26167 -0.8199,0.33254 -1.22985,0.49881 -0.15497,0.17942 -0.40871,-0.0398 -0.25374,-0.21917 l 0,0 c -0.0216,-2.3959 -0.5085,-4.69092 -1.65619,-6.8301 -1.57575,-2.61526 -3.51155,-5.15179 -6.42949,-6.3411 -2.99449,-0.70893 -1.99191,-4.94378 1.00258,-4.23484 z"
         id="path3993"
         style="fill:#000000;fill-opacity:1;stroke:none" />
      <path
         inkscape:connector-curvature="0"
         d="m 391.29595,403.40734 c 1.76527,0.30297 3.55043,0.31286 5.32903,0.15324 1.51154,-0.0824 2.90106,-0.61663 4.32064,-1.06938 0.54998,-0.21352 1.13274,-0.25522 1.69986,-0.39157 0.0315,-0.0499 0.10205,-0.005 0.0705,0.0446 l 0,0 c 0.0713,0.82118 -0.0759,1.44857 -0.65332,2.07767 -1.4008,1.328 -3.27201,1.92668 -5.15029,2.23279 -2.08691,0.22404 -4.19581,0.26338 -6.25102,-0.23832 -1.98622,-0.4487 -1.35165,-3.25765 0.63458,-2.80895 z"
         id="path3749"
         style="fill:#5f0000;fill-opacity:1;stroke:none" />
      <path
         inkscape:connector-curvature="0"
         d="m 386.34816,550.90404 c -2.48909,2.57657 -5.12592,4.99808 -7.88013,7.28669 -2.21128,1.7227 -4.50349,3.34528 -6.95148,4.71411 -1.83971,1.00399 -3.88307,1.51556 -5.72908,2.50534 -1.00295,0.23471 -2.19064,1.08088 -3.26422,1.00662 -0.28042,-0.0194 -1.11694,-0.39176 -1.40558,-0.51301 -0.1134,0.0545 -0.19043,-0.1059 -0.077,-0.16036 l 0,0 c 0.0964,-0.4564 0.0791,-0.94661 0.26636,-1.37383 0.44586,-1.01694 1.76597,-1.73571 2.50172,-2.48623 1.78274,-1.04034 3.49354,-2.20524 5.33713,-3.14053 2.16954,-1.26253 4.2373,-2.68158 6.1201,-4.35016 2.59783,-2.22437 5.09866,-4.55715 7.50172,-6.99124 2.47671,-2.53178 6.0572,0.97081 3.58049,3.5026 z"
         id="path3997"
         style="fill:#000000;fill-opacity:1;stroke:none" />
      <path
         inkscape:connector-curvature="0"
         id="path3936"
         d="m 348.82228,411.56486 c 1.19057,-1.42408 11.11742,-2.154 10.23489,1.18489 -0.75037,2.83894 -6.0145,3.1237 -8.18558,2.37494 -1.04219,-0.35946 -2.44543,-1.46137 -2.04931,-3.55983 z"
         style="fill:#ffffff;fill-opacity:1;stroke:none" />
      <path
         inkscape:connector-curvature="0"
         d="m 345.9076,411.66347 c 1.78463,-0.96283 3.70038,-1.51196 5.68709,-1.85335 2.6692,-0.31239 4.60587,0.0228 6.70991,1.72512 0.1835,0.27101 0.36699,0.54202 0.55048,0.81303 0.0522,0.0277 0.013,0.10137 -0.039,0.0737 l 0,0 c -0.30439,0.0124 -0.60878,0.0248 -0.91317,0.0372 -1.97105,-0.1971 -3.95376,-0.51359 -5.93721,-0.33317 -1.78888,0.26197 -3.52091,0.76301 -5.17882,1.49011 -1.38072,0.62169 -2.25993,-1.33094 -0.8792,-1.95264 z"
         id="path3751"
         style="fill:#5f0000;fill-opacity:1;stroke:none" />
      <path
         inkscape:connector-curvature="0"
         d="m 348.54889,412.56326 c 1.52128,0.98846 3.15097,1.77656 4.92975,2.1509 1.72471,0.25031 3.30657,-0.55298 4.92236,-1.01937 0.0422,-0.0412 0.10054,0.0184 0.0584,0.0597 l 0,0 c -0.11406,0.31856 -0.18756,0.6547 -0.34219,0.95569 -0.98442,1.91623 -3.04072,2.76351 -5.09653,2.78511 -2.40164,-0.32168 -4.27,-1.09395 -6.23337,-2.5162 -1.70822,-1.24564 0.0534,-3.66143 1.76161,-2.41579 z"
         id="path3753"
         style="fill:#5f0000;fill-opacity:1;stroke:none" />
      <path
         inkscape:connector-curvature="0"
         id="path3916"
         d="m 384.42326,401.3227 c 2.18848,0.0408 3.98342,-1.80658 5.58144,-3.12427 1.7091,-1.40928 4.11902,-3.74279 6.51978,-2.94945 0.12418,0.041 -0.68557,-0.6264 -0.872,-0.74204 -1.03691,-0.64316 -1.93896,-0.52145 -3.05997,-0.12144 -2.15041,0.76731 -3.55055,2.58573 -5.5885,3.50668 -1.25398,0.56667 -4.31913,0.7558 -4.98781,1.99485"
         style="fill:#ebc83f;fill-opacity:1;stroke:none" />
      <path
         inkscape:connector-curvature="0"
         id="path3918"
         d="m 349.12542,407.29071 c 2.83367,-1.60807 5.92038,2.02836 8.78171,0.59646 0.23471,-0.11747 1.48189,-1.77855 1.28734,-1.77789 -0.10107,3.4e-4 -0.27913,0.54441 -0.30422,0.58781 -0.49873,0.86246 -1.59161,1.43859 -2.55504,1.58441 -3.54471,0.53649 -6.83177,-1.10582 -10.1838,0.13353"
         style="fill:#ebc83f;fill-opacity:1;stroke:none" />
      <path
         inkscape:connector-curvature="0"
         id="path3920"
         d="m 362.72239,409.6377 c 3.04537,3.61999 3.01596,7.18743 0.39811,11.12097 -0.3782,0.56829 -1.14417,0.75498 -1.35608,1.41551 -0.16752,0.52214 1.72009,0.49673 2.25658,0.35493 2.63678,-0.69692 3.65765,-3.3534 3.95449,-5.80206 0.80048,-6.60318 -5.20562,-9.2158 -10.91439,-8.86997 -0.86384,0.0523 -2.53414,-0.22756 -3.16727,0.39317"
         style="fill:#ebc83f;fill-opacity:1;stroke:none" />
      <path
         inkscape:connector-curvature="0"
         id="path3924"
         d="m 359.67087,410.5711 c 3.71636,1.32295 1.37434,5.99408 2.34728,7.24428 0.60769,0.78086 3.38254,0.33558 3.96713,-0.43545 0.67457,-0.88973 0.19934,-1.43213 0.15305,-2.38717 -0.20699,-4.27164 -4.22857,-6.47724 -6.46746,-4.42166 z"
         style="fill:#ebc83f;fill-opacity:1;stroke:none" />
      <path
         inkscape:connector-curvature="0"
         id="path3926"
         d="m 360.71919,409.93461 c 0.65335,0.80185 1.20574,1.68076 1.80298,2.52556 3.53051,4.99388 2.94843,-2.26105 -1.80298,-2.52556 z"
         style="fill:#ebc83f;fill-opacity:1;stroke:none" />
      <path
         inkscape:connector-curvature="0"
         id="path3940"
         d="m 348.48837,416.02943 c 2.25704,2.08321 4.89665,3.05473 7.70104,1.62204 1.34701,-0.68814 1.12975,-1.74212 1.49501,-3.03785 0.0355,-0.12597 0.0243,-0.49701 0.0881,-0.38269 0.22649,0.40607 -0.0464,1.24186 -0.10321,1.65519 -1.09793,7.98402 -9.10046,6.52505 -9.18094,0.14331 z"
         style="fill:#ae6139;fill-opacity:1;stroke:none" />
      <path
         inkscape:connector-curvature="0"
         id="path3942"
         d="m 392.02331,407.16546 c 2.80414,3.66223 10.17827,3.10216 12.14451,-1.30715 0.16682,-0.37413 0.33754,-3.49987 -0.37209,-3.45345 -1.55429,0.10168 -3.30741,2.02924 -4.88773,2.4758 -2.61917,0.74006 -5.28459,0.58311 -6.88469,2.2848 z"
         style="fill:#ae6139;fill-opacity:1;stroke:none" />
      <path
         inkscape:connector-curvature="0"
         d="m 341.93918,409.1834 c 3.20587,3.32606 6.33444,6.72803 9.57723,10.02286 4.26299,4.18189 8.53983,8.3497 12.8335,12.50011 2.41296,2.40851 5.02616,4.59259 7.6958,6.70649 1.652,1.16653 3.10342,2.5167 4.28578,4.15552 1.00957,1.45444 1.47717,3.13493 1.91691,4.82239 0.33826,1.32344 0.7137,2.63748 0.9422,3.98563 0.12585,0.62589 0.14414,1.27229 0.29764,1.89267 0.12588,0.72105 0.235,1.44973 0.25598,2.18174 0.11979,1.30468 -0.43098,2.43867 -1.16148,3.47293 -0.7581,0.91149 -1.63104,1.7251 -2.52453,2.50222 -0.96858,0.79668 -2.05215,1.43491 -3.09595,2.12537 -1.22414,0.82276 -2.53524,1.49152 -3.87339,2.10526 -1.45738,0.63589 -2.94311,1.20792 -4.43524,1.75701 -1.90661,0.69928 -3.88447,1.1567 -5.88574,1.47828 -2.35717,0.34993 -1.1118,0.34119 -3.73471,-0.1047 -0.23954,0.077 -0.34838,-0.26181 -0.10884,-0.33877 l 0,0 c 1.82515,-1.86921 0.84397,-1.14529 2.86569,-2.2735 1.72686,-1.0366 3.48499,-2.04419 5.36455,-2.78122 1.38405,-0.52341 2.75303,-1.07918 4.08945,-1.71637 1.13336,-0.53153 2.28092,-1.04644 3.3178,-1.75601 0.91306,-0.60357 1.81038,-1.23181 2.70169,-1.86696 0.67329,-0.52549 1.33338,-1.06658 1.89448,-1.7148 0.26628,-0.29519 0.31599,-0.20836 0.26763,-0.66205 -0.0416,-0.48778 -0.0344,-0.976 -0.22249,-1.44094 -0.14408,-0.67978 -0.29031,-1.35849 -0.37189,-2.04984 -0.25597,-1.2348 -0.58306,-2.45085 -0.88685,-3.67452 -0.30285,-1.1625 -0.58046,-2.34854 -1.24755,-3.36848 -0.90774,-1.32052 -2.12679,-2.35757 -3.37696,-3.34715 -2.73511,-2.24029 -5.40393,-4.56028 -7.92742,-7.039 -4.31932,-4.19787 -8.56533,-8.47391 -12.66177,-12.89034 -3.21167,-3.46232 -6.55552,-6.93006 -8.98614,-11.00287 -1.18862,-1.55183 1.006,-3.23279 2.19462,-1.68096 z"
         id="path3995"
         style="fill:#000000;fill-opacity:1;stroke:none" />
      <path
         id="path4479"
         d="m 296.96591,506.818 c -0.15969,0.0162 -0.32719,0.0426 -0.5,0.0937 -3.80269,1.04274 -7.54634,2.25326 -11.21875,3.6875 -4.88519,1.85659 -9.30233,4.67182 -13.6875,7.46875 -2.48973,1.73976 -5.23074,3.42231 -6.8125,6.09375 -0.81399,3.53764 3.47985,3.35849 5.8125,3.25 3.59561,-0.1684 7.14098,-0.64903 10.71875,-1.03125 -0.033,0.0172 -0.0608,0.0452 -0.0937,0.0625 -2.126,1.12265 -4.35285,2.01925 -6.53125,3.03125 -1.37144,0.61609 -2.57699,1.47999 -3.4375,2.71875 -0.35968,0.65455 -0.46055,1.35957 -0.40625,2.09375 -0.0938,0.40171 -0.10177,0.82158 -0.21875,1.21875 -0.44286,1.19346 -0.92928,2.3377 -1.28125,3.5625 -1.01722,3.13431 1.70144,3.43754 4.03125,3.25 3.55376,-0.64681 7.07474,-1.43602 10.59375,-2.25 2.90722,-0.66345 5.77631,-1.48097 8.65625,-2.25 2.05706,-0.54345 3.75796,-1.71705 5.4375,-2.96875 1.86762,-1.34432 3.72497,-2.74771 5.46875,-4.25 0.9451,-0.97647 2.19249,-1.74956 2.9375,-2.90625 0.0534,-0.0676 0.0224,-0.0938 0.0312,-0.125 0.0375,0.0182 0.0754,0.0397 0.21875,0.0312 0.81629,-0.0389 1.56262,0.12418 2.375,0 0.2751,-0.11007 0.50146,-0.28423 0.6875,-0.46875 0.0983,-0.0159 0.36612,-0.0529 0.59375,-0.0937 -0.0479,-0.0486 -0.0944,-0.0952 -0.125,-0.15625 -0.0527,-0.10541 0.0833,-0.26045 0,-0.34375 -0.0833,-0.0833 -0.2917,0.0833 -0.375,0 -0.0833,-0.0833 0.0527,-0.2696 0,-0.375 -0.0745,-0.14908 -0.2259,-0.2259 -0.34375,-0.34375 l -0.34375,-0.34375 c -0.47707,-0.47707 -0.40385,-0.40155 -0.34375,-0.34375 0.0974,0.0505 0.16383,0.0152 -0.0312,-0.375 -0.14907,-0.29814 -0.53843,-0.4206 -0.6875,-0.71875 -0.0527,-0.1054 0.0833,-0.26045 0,-0.34375 -0.0833,-0.0833 -0.2917,0.0833 -0.375,0 -0.0833,-0.0833 0.0527,-0.23834 0,-0.34375 -0.0104,-0.0208 -0.0179,-0.0439 -0.0312,-0.0625 -0.55205,0.27116 -1.01606,0.66843 -1.3125,1.3125 0.1389,-0.23685 0.34749,-0.42379 0.65625,-0.46875 0.54114,0.32868 -0.0957,0.702 -0.5,0.6875 -0.0754,0.005 -0.14561,0.0235 -0.21875,0.0312 -0.0394,0.10722 -0.0938,0.19328 -0.125,0.3125 0.0144,-0.11314 0.0272,-0.20615 0.0625,-0.3125 -0.73256,0.0872 -1.38008,0.31728 -1.96875,0.8125 -1.03263,0.724 -1.70564,1.90088 -2.75,2.625 -1.74086,1.42478 -3.53949,2.76403 -5.28125,4.1875 -1.38161,1.07296 -2.74386,2.23609 -4.4375,2.78125 -2.76065,0.94909 -5.61208,1.62139 -8.4375,2.34375 -3.39671,0.76046 -6.81676,1.4712 -10.28125,1.84375 -0.0479,0.004 -0.46899,0.0286 -0.84375,0.0625 0.42408,-1.06711 0.9023,-2.13498 1.28125,-3.21875 0.22236,-0.8382 0.432,-1.66476 0,-2.46875 -0.0261,-0.11669 -0.15819,0.13831 -0.0312,-0.125 0.40991,-0.83528 1.73006,-0.99404 2.40625,-1.5 2.18378,-1.01578 4.42094,-1.92002 6.65625,-2.8125 1.57765,-0.65948 3.11048,-1.40569 4.5625,-2.3125 1.61957,-1.2338 2.26834,-3.55867 -0.46875,-3.8125 -1.64406,0.22764 -3.277,0.54821 -4.9375,0.65625 -3.72476,0.42813 -7.43958,0.99887 -11.1875,1.1875 -1.06774,-0.0418 -2.21962,-0.29145 -3.28125,-0.28125 1.24032,-2.05428 3.78149,-3.27677 5.625,-4.625 4.3492,-2.5 8.99829,-4.2286 13.71875,-5.90625 3.64906,-1.24365 7.31192,-2.44965 11.03125,-3.46875 0.85176,-0.25238 1.35644,-0.79583 1.53125,-1.40625 -0.18454,-0.20407 -0.50111,-0.31472 -0.625,-0.5625 -0.0527,-0.10541 0.0527,-0.23835 0,-0.34375 -0.14907,-0.29815 -0.53843,-0.42061 -0.6875,-0.71875 -0.0938,-0.18759 0.0938,-0.53116 0,-0.71875 -0.0497,-0.0994 -0.16181,-0.14712 -0.25,-0.21875 -0.1937,-0.0362 -0.40346,-0.0537 -0.625,-0.0312 z m 9.28125,18.03125 c 0.0204,-0.002 0.0419,0.002 0.0625,0 0.0301,-0.0819 0.0279,-0.17477 0.0625,-0.25 -0.0469,0.0799 -0.0948,0.15914 -0.125,0.25 z m -39.15625,0.21875 c -0.008,0.19169 0.0372,0.41185 -0.15625,0.28125 0.0451,-0.10018 0.1052,-0.1849 0.15625,-0.28125 z m 18.71875,0.96875 c 0.27616,0.0236 0.55325,0.0677 0.8125,0.15625 -0.34307,0.1392 -0.61195,0.0457 -0.8125,-0.15625 z M 271.96591,540.318 c 0.002,0.054 0.0311,0.10247 0.0312,0.15625 10e-5,0.0181 -0.0452,0.005 -0.0625,0 0.0154,-0.0502 0.0159,-0.10601 0.0312,-0.15625 z"
         style="fill:#2b1100;fill-opacity:1;stroke:none"
         inkscape:connector-curvature="0" />
      <path
         inkscape:connector-curvature="0"
         d="m 471.53246,481.24306 c -4.25123,2.2243 -8.01803,5.25429 -12.01655,7.89632 -7.12072,4.7844 -14.62912,8.92659 -22.23469,12.87664 -10.78881,5.63976 -22.03629,10.27714 -33.40322,14.59772 -7.51038,3.05469 -15.31884,5.03574 -23.32959,6.15137 -2.54066,0.46483 -5.16093,0.40016 -7.70657,0.79115 0.24126,0.14678 -0.0861,-0.0182 0.4455,-0.10117 0.1106,-0.0173 0.12381,2.7027 0.12999,2.88011 0.21426,3.89489 0.60456,7.77942 1.01736,11.65773 0.15073,2.47396 0.79334,4.68919 2.42578,6.55861 1.32565,1.49135 2.99414,2.12611 4.89235,2.53223 4.57208,0.82552 9.21324,1.11656 13.84523,1.36201 6.80503,0.42742 13.60585,0.16411 20.37587,-0.5737 6.84825,-0.82147 13.54295,-2.4978 20.11263,-4.55624 6.18673,-2.05008 11.91398,-5.18905 17.65272,-8.22619 5.36068,-2.94586 10.88413,-5.57635 16.30831,-8.39942 4.39348,-2.36926 8.75859,-4.79647 13.03368,-7.3742 3.18141,-1.81168 5.90125,-4.19752 8.34009,-6.90257 2.36474,-2.99836 5.32581,-5.13093 8.71365,-6.8095 1.92469,-0.87135 0.90071,-0.67616 3.08139,-0.53356 0.0926,-0.0617 0.17989,0.0692 0.0873,0.13095 l 0,0 c -0.69651,2.04984 -0.13359,1.1914 -1.62737,2.61455 -2.473,2.38664 -4.9677,4.76151 -7.23947,7.34318 -2.73934,2.98173 -5.65959,5.74526 -9.24429,7.70992 -4.37869,2.56517 -8.81495,5.03433 -13.30499,7.39931 -5.43875,2.76373 -10.95573,5.36947 -16.36872,8.18397 -5.93974,3.14334 -11.89963,6.33131 -18.33134,8.36923 -6.79835,2.13979 -13.72799,3.86613 -20.82241,4.68353 -6.96683,0.74137 -13.96477,1.10415 -20.96872,0.65765 -4.87347,-0.27044 -9.78412,-0.57682 -14.53866,-1.75551 -2.43878,-0.76332 -4.66795,-1.87302 -6.42339,-3.78648 -2.02504,-2.41455 -2.98612,-5.14342 -3.22653,-8.30097 -0.3831,-3.98099 -0.71869,-7.98397 -0.62331,-11.98634 0.0663,-1.91346 -0.30373,-4.67825 2.01778,-5.31816 2.53033,-0.13648 5.09243,0.10036 7.5957,-0.46697 7.76431,-1.37934 15.29035,-3.81297 22.70547,-6.46287 11.22545,-4.38785 22.10746,-9.57843 32.91557,-14.90301 7.52445,-3.85732 14.91748,-7.95752 21.91153,-12.72616 4.12238,-2.76233 8.27563,-5.50456 12.76999,-7.63705 1.71395,-0.72968 2.74587,1.6942 1.03193,2.42389 z"
         id="path3903"
         style="fill:#101010;fill-opacity:1;stroke:none" />
      <path
         inkscape:connector-curvature="0"
         d="m 225.32004,459.58379 c -5.14228,-1.25193 -10.10028,-3.15682 -15.10881,-4.8472 -8.22453,-2.92787 -16.63806,-5.24772 -25.14271,-7.19438 -5.3867,-1.20657 -10.86859,-2.01324 -16.15916,-3.6171 -1.57478,-0.50705 -3.09908,-1.13168 -4.16122,-2.42809 -0.69644,-1.08118 -1.05881,-1.35447 2.26386,-2.07603 0.39843,-0.0865 0.53106,0.62361 0.74106,0.97309 0.90184,1.50084 1.37713,3.40421 1.93697,5.03531 2.69992,8.22368 4.66697,16.65374 6.43699,25.11785 1.63207,8.28458 3.19362,16.58177 4.88792,24.8543 0.75212,3.67516 1.32047,7.38945 2.20484,11.03696 0.19706,1.1393 0.68236,1.83937 1.50426,2.59826 3.82766,2.79349 8.04136,5.03444 12.09079,7.49091 8.20891,5.04223 15.99647,10.72209 23.63896,16.57552 5.28343,4.01736 10.2842,8.38042 15.19101,12.84384 2.15484,1.84623 4.06417,3.9313 5.89543,6.09044 1.29888,1.52036 2.79654,2.84954 4.30899,4.15109 1.80277,1.67062 3.82812,3.04856 5.87868,4.38851 2.54875,1.51591 5.04287,3.10371 7.42997,4.86353 0.35537,0.66087 1.32735,0.74785 1.73346,1.35971 0.28875,0.43503 0.29533,1.01081 0.54977,1.46676 0.0897,0.0419 0.0304,0.16875 -0.0593,0.12682 l 0,0 c -0.54302,0.0651 -1.06568,0.35478 -1.61088,0.31155 -0.74209,-0.0588 -1.29772,-0.8771 -2.0523,-0.88062 -2.69405,-1.30393 -5.3042,-2.75848 -7.81368,-4.39307 -2.22289,-1.3889 -4.36017,-2.91268 -6.32786,-4.64882 -1.61236,-1.43601 -3.27197,-2.84025 -4.62784,-4.53216 -1.75823,-2.04328 -3.56403,-4.04491 -5.52308,-5.90049 -4.7677,-4.46822 -9.78792,-8.65688 -14.93858,-12.67623 -7.55879,-5.77262 -15.25147,-11.39008 -23.38118,-16.34122 -4.22583,-2.58393 -8.60659,-5.00928 -12.45358,-8.14882 -1.16159,-1.15463 -2.0113,-2.39299 -2.33685,-4.03182 -0.91463,-3.67409 -1.72726,-7.37237 -2.58215,-11.06065 -1.78129,-8.25598 -3.30831,-16.56194 -4.88873,-24.85817 -1.74232,-8.33643 -3.61683,-16.6592 -6.25009,-24.76763 -0.46925,-1.43865 -1.19988,-3.01077 -1.53565,-4.49692 -0.0128,-0.0567 0.0433,-0.11066 0.0824,-0.15361 0.64798,-0.71138 1.36284,-1.36298 1.97517,-2.10526 0.0397,-0.0481 -0.0804,-0.0952 -0.12064,-0.14282 0.94894,0.25796 1.80663,1.15015 2.84912,1.23829 5.23416,1.55256 10.66798,2.22735 15.98172,3.44978 8.61179,2.00339 17.10971,4.44433 25.46941,7.33071 4.8951,1.72023 9.76557,3.53267 14.74903,4.98428 2.13095,0.51301 1.40544,3.52662 -0.7255,3.0136 z"
         id="path3915"
         style="fill:#1a1a1a;fill-opacity:1;stroke:none" />
    </g>
  </g>
</svg>
